<svg xmlns="http://www.w3.org/2000/svg" width="256" height="256" viewBox="0 0 100 100"><rect width="100" height="100" rx="20" fill="#426174"></rect><path fill="#f2efeb" d="M47.82 23.34L47.82 30.81L31.20 30.81L31.20 76.66L22.00 76.66L22.00 30.81L5.52 30.81L5.52 23.34L47.82 23.34ZM85.25 59.30L94.48 59.30Q93.67 67.83 88.18 72.61Q82.68 77.39 73.57 77.39L73.57 77.39Q67.19 77.39 62.34 74.37Q57.49 71.35 54.85 65.78Q52.22 60.22 52.11 52.86L52.11 52.86L52.11 47.88Q52.11 40.33 54.78 34.58Q57.45 28.83 62.45 25.72Q67.45 22.61 74.01 22.61L74.01 22.61Q82.83 22.61 88.21 27.40Q93.60 32.20 94.48 40.95L94.48 40.95L85.25 40.95Q84.59 35.21 81.90 32.66Q79.21 30.11 74.01 30.11L74.01 30.11Q67.96 30.11 64.72 34.53Q61.48 38.94 61.41 47.47L61.41 47.47L61.41 52.20Q61.41 60.84 64.50 65.38Q67.60 69.92 73.57 69.92L73.57 69.92Q79.02 69.92 81.77 67.47Q84.52 65.01 85.25 59.30L85.25 59.30Z"></path></svg>