<svg id="Layer_1" data-name="Layer 1" xmlns="http://www.w3.org/2000/svg" viewBox="0 0 512 512"><title>mute-soud-handdrawn</title><path d="M262.7,326.87c-3,5.16,86.09,41.93,82.73,47.76-1.78,3.08-91.83-59.67-94.82-54.49-2.3,4,93.48,49.52,91.56,52.85s-69-38.33-70.6-35.64c-3.16,5.47,79.14,38.47,76,43.88-1.77,3.07-70.84-43.21-72.44-40.44-1.9,3.3,70.15,33.23,67,38.68-1.89,3.28-66.75-40-68.78-36.51-1.46,2.53,76.36,37.54,73.53,42.44-1.18,2.05-53-32.26-55.15-28.6-2.24,3.88,55,27.3,53,30.62s-54.67-31.34-56.06-28.91c-2,3.44,53.92,27.64,52.41,30.25-1.43,2.47-51.35-30.9-52.46-29-1.46,2.53,57.37,30,56,32.34-1,1.8-33.93-17.71-35-15.84-1.52,2.63,40.43,20.43,39.17,22.61C347,402.16,302.6,370,301.34,372.18c-1.12,1.94,49.22,26,48.17,27.81-.92,1.59-39.86-21.92-41.24-19.53s34.89,17.83,33.89,19.56c-.5.86-14.67-4.28-15-3.69-.85,1.47,18.89,9.42,18.25,10.53-.75,1.31-21.8-10.7-22.45-9.57-.91,1.58,15.69,7.24,14.9,8.6-.14.24-4.59,2.63-4.77,2.93s8.26,4.43,8.11,4.68-5.54-2.2-5.64-2,4,2.25,4,2.31" fill="none" stroke="#999" stroke-linecap="round" stroke-linejoin="round" stroke-width="1.28"/><path d="M339.89,101.47c-.17.29,8,4.19,7.81,4.51s-7.17,1.35-7.4,1.75c-.47.82,4.14,1.31,3.67,2.12-.18.3-7.52-.18-7.71.15-.74,1.27,7.62,3.18,7.1,4.1-.1.18-3.26,5-3.43,5.29-.85,1.48,1.44-.39.91.53-.27.47-11.54-2-11.87-1.4-1,1.81,12.54,4.82,11.49,6.63-.12.22-6.17,2.68-6.42,3.11-.92,1.6,9.32,3.83,8.65,5-.35.61-19.17-10.07-19.73-9.1-.77,1.34,24,11.52,23,13.29-.9,1.57-29.89-12.26-30.73-10.79-1.26,2.18,31,16.37,30.32,17.5-.43.75-17.22-8.44-17.78-7.47-1.13,2,12.29,4.35,11.1,6.41-.44.77-22.67-10.28-23.39-9-.85,1.47,29.66,15,28.73,16.58s-26.56-12.44-27.31-11.14c-.93,1.6,28.81,12.6,27.06,15.62-.77,1.33-39.16-19-39.91-17.74-1.87,3.24,48.29,24.44,46.8,27-.68,1.18-31.13-20.06-32.24-18.14-1.85,3.2,19,8.74,18,10.41-.47.81-19.9-12.52-20.64-11.23-1,1.71,23.66,10.21,22.17,12.8-.75,1.3-27.33-12.61-27.82-11.76-1.44,2.49,30.84,15,29.64,17.11-1.5,2.59-36.35-23.56-37.8-21.06-1.11,1.93,38.94,18,37,21.37-1.39,2.41-39.47-20.89-40.42-19.25-1.62,2.8,39.58,19,37.92,21.89-1.24,2.15-31.58-16.12-32.37-14.76-1.08,1.88,33.47,16.71,32.34,18.67s-36.94-20.24-37.95-18.51c-2,3.4,50.89,24.72,48.87,28.21C346.42,182.2,294.5,152,293,154.59c-2.21,3.83,48.5,25,47.21,27.25S297.91,158.1,296.27,161c-2.21,3.82,55.27,26.79,53.05,30.63-1.49,2.57-54.22-26.52-55.23-24.78-2,3.5,60.38,29.16,57.92,33.43-2.12,3.66-57.89-30.09-59.52-27.26-1.53,2.66,50.91,24.38,48.74,28.14-1.59,2.75-64.14-35.93-65.64-33.33s70.55,37.45,69.14,39.91c-1.53,2.65-58.83-38.3-61.19-34.23-2.68,4.64,56.87,26,53.91,31.12-1.87,3.24-53.21-29-54.9-26.1-3,5.15,71.47,33.89,68.28,39.41-2.62,4.54-70.13-39.92-71.7-37.21-3,5.12,70.35,36,68.37,39.47-1.86,3.22-71.18-41.14-73.84-36.53-1.84,3.19,65.75,32.44,63.36,36.58-1.56,2.7-65.56-42.05-67.62-38.49-1.94,3.36,76.37,40.09,74.64,43.09-1.39,2.41-69.87-37.45-71.16-35.22-2.79,4.83,74.78,36.15,71.74,41.41-1.74,3-79.64-44-81.34-41.07-2.2,3.81,85.9,41.18,82.26,47.48-3,5.26-75.41-49.33-78.43-44.1-1.66,2.87,78.15,37.74,75,43.27S259.25,186,257.26,189.48c-3,5.16,84.14,44.05,82.18,47.44-2.59,4.49-81.66-45.68-84.15-41.37-3.68,6.37,99.64,50.7,96.69,55.82-3.44,6-94.15-52.2-95.8-49.33-2.61,4.52,95.8,48.48,92.85,53.6-3.73,6.45-99.89-64.27-103.79-57.51-3.73,6.46,102,53.15,99.53,57.46-3.62,6.26-100.49-57-102.28-53.84-2.24,3.88,109.6,56.38,106.62,61.55-4.18,7.24-110.57-72.51-115.19-64.52-2.74,4.75,110.84,58.66,108.53,62.65-4,7-121.6-68.66-123.93-64.63-3.37,5.84,122.36,63.08,119.09,68.75-4.41,7.64-117.85-75.78-122.11-68.39-5.68,9.84,131.12,69.5,128.44,74.14-3.41,5.9-127.94-78.22-131.5-72.06-5.29,9.16,142.82,71.51,138.08,79.71-6.25,10.83-154.55-92.77-158.77-85.46-4.69,8.12,158.53,81.79,154.32,89.08-2.72,4.71-142.65-86.89-146.56-80.12-6.2,10.73,148.41,77.25,144.76,83.57s-157.58-97.81-162.2-89.81c-5.39,9.33,170.32,87.13,165.48,95.52-6,10.31-170.42-101.48-173.49-96.17-4.71,8.15,181.56,90.8,175.49,101.31C346.27,302.54,170.29,185,164.69,194.74c-3.38,5.85,179.43,93.91,175.25,101.16-6,10.4-157.47-97.41-161.25-90.86-7.26,12.57,174.57,92,170.78,98.58-6.07,10.52-165.85-107.86-172-97.12-6.87,11.9,165.95,87.8,162.48,93.8-5.7,9.87-166.57-108.55-173-97.44-3.7,6.41,179.76,91.25,174.34,100.64-5.12,8.87-172-106.09-177.35-96.88-3.77,6.52,188.72,91.5,181.17,104.58-3.4,5.88-175.55-103.07-179.25-96.67-4.16,7.2,176.54,92.78,172.59,99.63-5.66,9.81-160-99.77-164.1-92.59-4.53,7.84,175.45,84.55,168.21,97.1-3.4,5.88-178.12-109.3-182.47-101.77-6.13,10.62,192.82,103.34,189.37,109.32-4.3,7.45-183.23-115-187.76-107.2-3.39,5.87,187.6,98.38,183.31,105.82C341,331.67,169.48,210.38,162.8,222c-5.23,9.06,182.5,89.7,175.72,101.44-4,7-160.4-102-165.9-92.47S358.07,320.6,350.55,333.63c-4.87,8.44-182-114.2-188.51-103C155,242.91,355.34,329,349.62,339c-7.11,12.31-185.39-118.2-190.32-109.66-5.58,9.66,187.35,99.33,183.53,105.95S170,227.78,166.15,234.43C159.37,246.18,352.1,325.31,345,337.65c-5.79,10-180.9-110.56-185.41-102.74-6.77,11.73,196.64,97.76,189.82,109.57C344,353.78,176.78,234.15,171.2,243.82c-7.52,13,171.12,85,165.14,95.33-4.25,7.35-166.51-109.3-172.44-99-7.23,12.52,191.68,101.26,187.62,108.3-3.25,5.64-180.9-112.13-184.9-105.2-4.19,7.25,189.19,95.55,183.27,105.8C345.15,357.2,171.48,242.48,168.32,248c-4,7,177.67,94.74,174.29,100.61-5.68,9.84-175.42-110.77-181.83-99.67-5.65,9.79,185.76,89.5,178.08,102.8-3.83,6.64-158.5-101.86-164.56-91.37-6.74,11.67,183.57,90.11,176.7,102-5.91,10.23-187.63-111.13-191.68-104.11-7.07,12.24,194,104.19,190.64,110-3.71,6.42-183.84-119.68-190.29-108.51-3.44,6,191.17,102.16,187.62,108.3-4.87,8.43-169.92-104.24-174-97.22-6,10.41,178.35,94.34,174.62,100.8-5.07,8.79-180.2-113-186.33-102.44-2.14,3.71,78.47,37.51,75.1,43.35-2.74,4.75-69.93-43.62-72.18-39.72-3.15,5.46,80.75,40.72,78.2,45.14-1.49,2.58-74.32-42.59-76.54-38.76-1.78,3.07,58,27.74,55.5,32-1.39,2.41-52.52-30.56-53.71-28.51s53.38,27.26,51.84,29.93c-1,1.73-53.82-31.3-55.08-29.12-2.25,3.9,58.79,29.33,56.79,32.79s-53.35-29.88-54.61-27.69c-2.35,4.06,48.55,23.51,46.59,26.9-1.62,2.8-41.34-20.44-42.52-18.4-1.05,1.82,27.66,11.55,25.75,14.86-.54.93-21.14-8.13-21.85-6.9-1,1.68,15.77,6.34,14.57,8.41-.4.69-19.9-11.33-20.31-10.62-.85,1.47,28.76,14.34,27.78,16-.72,1.25-28.71-12.18-29.43-10.94s13.35,6,12.62,7.29c-.35.6-14.49-7.67-14.85-7-.6,1,14,6,13.12,7.57-.1.18-4.43-2.78-4.55-2.58-.86,1.49,5,.71,4.08,2.35-.3.52-17.65-7.12-18.13-6.3-.33.57,8.58,3.61,8,4.62-.21.36-5.85,1.59-6,1.84s6.71,3.7,6.64,3.83" fill="none" stroke="#999" stroke-linecap="round" stroke-linejoin="round" stroke-width="1.28"/><path d="M389.22,82.8c-3.38,5.86,78.78,41.63,77.12,44.52-1.85,3.2-53.11-30.83-55.12-27.36-2.76,4.77,62.15,29,59.17,34.16-1,1.75-42.57-23.71-44-21.3-1.3,2.25,41.16,20.52,39.76,23-1,1.76-29.45-12.32-29.95-11.47-1.69,2.92,36.51,16.61,34.57,20-1,1.74-39.56-25.67-41-23.27-2.22,3.84,53.52,28.1,52.31,30.2-.74,1.28-40.5-22-41.23-20.75-1.69,2.92,34.09,17.35,33.08,19.1S434.38,124.6,433,127c-1,1.76,52.82,28.22,51.84,29.92-1.73,3-47.54-26.39-49.36-23.24-1.22,2.11,49.73,24.17,47.76,27.57-1,1.65-44.88-28.39-46.48-25.61s48.16,23.13,46.13,26.63c-.91,1.57-36.56-23.7-38.07-21.07-1,1.81,33.19,16.11,31.87,18.4-.92,1.59-33-15.82-33.73-14.5-1.67,2.89,44.07,21.59,42.4,24.48-.8,1.39-31-14.87-32.11-12.92-1.38,2.39,26.91,13.38,26,15-.41.7-14.61-4.74-15.13-3.84-1.69,2.93,28.43,13.43,27.14,15.67-.44.76-25.45-13.8-26.37-12.21-1.7,2.95,18.84,7.29,17.29,10-.38.66-13.18-3.77-13.41-3.38-1.69,2.93,24.49,12.11,23.61,13.63-1.21,2.09-32.64-15.48-33.23-14.44-1.31,2.27,28.26,13.77,27.16,15.68S460.94,177,460.1,178.48c-.72,1.25,31.24,16.26,30.47,17.59-.5.87-21.4-12.09-21.92-11.2-.72,1.26,18,6.7,16.37,9.45-.38.66-22.06-9.08-22.7-8-.74,1.27,40,19.65,38.48,22.22-.85,1.48-25.55-10.1-26.13-9.09-.75,1.3,28.63,13.84,27.47,15.86-.84,1.45-30.63-13.52-31.56-11.9-1.38,2.39,31.13,15.36,30,17.32-.77,1.34-24.74-11.08-25.16-10.34-1.11,1.93,28.36,13.49,27.11,15.65-1,1.74-28.43-18-29.29-16.46s29.49,13.89,28.13,16.24c-.77,1.33-23.86-9-24.66-7.59-1.28,2.22,19.6,8.49,18.38,10.61-.5.86-15.34-5.07-15.69-4.45-.69,1.2,23,11.08,22.06,12.73-.59,1-22.34-13.68-22.88-12.75-.7,1.21,25.34,12.64,24.48,14.13-.6,1-29.78-16.54-30.52-15.27-1.25,2.17,21,10.37,20.25,11.69-.14.24-6.5-.74-6.62-.53-.63,1.1,19.73,8.61,18.52,10.69-.5.86-17.4-8.33-17.87-7.52-1.33,2.3,11.57,4.84,10.78,6.22-.32.55-12.87-7.54-13.28-6.84-1.17,2,17.3,7.51,16.23,9.37-.82,1.42-25.69-14.71-26.5-13.29-.69,1.2,32,16.33,31.06,17.93s-31.67-16.43-32.43-15.11c-1,1.68,33.2,16.1,31.87,18.4-.37.64-19.63-6.34-20.27-5.25s12.25,4.5,11.14,6.43c-.44.76-13.47-1.62-13.79-1.07-.9,1.56,18.33,8.54,17.44,10.07-.31.53-12.84-7.47-13.24-6.78-.79,1.37,9.88,3.67,9,5.19-.15.25-6.33-3.57-6.53-3.23-.68,1.17,11.18,5.18,10.63,6.14-.84,1.46-21.55-12.55-22.23-11.38-.95,1.64,20.4,9.17,19.27,11.13-.26.45-7.78-.29-8,.09-.86,1.48,12.48,4.92,11.49,6.63-.86,1.48-24.23-14-25.17-12.36-.84,1.46,29.56,14.82,28.59,16.5-.39.67-13.38-7.73-13.81-7-1,1.66,5.26,1.15,4.44,2.57-.33.57-11-.44-11.2-.1-.78,1.35,11.63,4.25,10.56,6.1-.16.28-5.06,2.56-5.23,2.86-.8,1.39,11.8,4.45,10.78,6.22-.26.45-14.58-7.41-15.15-6.43-.87,1.5,13,5.4,12.11,7-.59,1-17.43-5-18-4-.82,1.42,25.24,12.38,24.29,14-1.07,1.85-30.21-13.26-30.76-12.32-.66,1.14,23.71,12.3,23.11,13.34-.23.39-9.64-3.84-10-3.24-.76,1.32,3.38-.48,2.32,1.34-.38.66-11.34-3.55-11.58-3.14-.93,1.61,16.05,6.81,15,8.65-.48.83-12.54-7.66-12.94-7-.74,1.28,17.64,8.76,17,9.83-.27.47-7.94-2.82-8.13-2.49-1,1.68,10,3.2,8.9,5.14-.49.84-14.67-2-15-1.37-.6,1,14.42,6.83,13.77,8-.48.83-17.72-4.68-18.25-3.75-.74,1.28,22.65,11.24,21.85,12.62-.67,1.17-18.93-8.18-19.28-7.56-.69,1.19,11.51,5.15,10.86,6.27-.41.71-16.53-6.91-17-6.07-.59,1,20,9.86,19.29,11.14-.6,1-21.63-13.1-22-12.39-.72,1.24,19,9.24,18.23,10.52-.46.8-21.26-7.82-21.94-6.63s18.22,8.22,17.23,9.94c-.47.81-14-3.79-14.41-3.09-1.07,1.85,26.09,12.6,25,14.45s-29.34-12.53-30.33-10.83c-1.13,2,29.15,14.82,28.29,16.33s-25.09-10.65-25.84-9.37,16.38,7.56,15.56,9c-.53.92-13.5-6.89-14-6.09-1,1.81,14.53,6.36,13.65,7.88-.42.73-19.24-7-19.59-6.4-1,1.82,22.25,11.47,21.65,12.5-.44.77-19.81-12.36-20.43-11.27-.51.88,9.45,4.08,8.85,5.11-.37.64-10.84-6-11.23-5.3-.57,1,20.35,10.55,19.83,11.45-.61,1.06-20.76-9.06-21.51-7.76-1.06,1.84,18.82,9.41,18.19,10.5-.14.25-5.65-2.18-5.76-2-.53.92,10.88,5.16,10.39,6-.64,1.1-19.45-11.15-19.79-10.57-1.05,1.82,14.69,6.84,14,8.07-.32.55-16.31-5.91-16.6-5.41-1.11,1.92,19.52,9,18.52,10.69-.46.8-25.14-10-26-8.58-.55,1,22.36,10.53,21.33,12.31-.36.63-11.43-2-11.71-1.56-.48.84,4.32,1,3.68,2.12-.24.41-9.35-3.16-9.67-2.59-.57,1,17.06,7.65,16.11,9.3-.35.6-18.9-8.7-19.55-7.57s21,9.91,20.08,11.59c-.54.94-16.26-5.43-16.64-4.77-1.08,1.87,17.5,8.65,16.87,9.74-.37.63-21.58-8.28-22.06-7.46-.85,1.47,23,10.77,21.9,12.64-.29.51-14.08-8.42-14.51-7.68-.86,1.49,1.87-.08,1.37.79-.23.4-8.62-2.51-8.94-2-.94,1.63,12.75,5.79,12.07,7-.15.25-8,.25-8.25.71-1.05,1.82,9.32,3.36,8.44,4.87-.4.69-22.65-8.16-23.05-7.46-.54.94,10.72,5,10.21,5.89-.18.32-10.25-1.51-10.47-1.13-1.08,1.87,8.66,2.44,7.56,4.36-.14.25-2.13,5.57-2.33,5.91-.67,1.16,3.62-.42,2.53,1.46-.25.43-9-2.1-9.29-1.64-.56,1,16.16,6.89,15.1,8.72-.56,1-28.07-10.32-28.58-9.44-.95,1.64,26.93,13.7,26.13,15.09-.48.84-12.92-7.08-13.34-6.34-.64,1.11,2.36-.91,1.38.8-.18.31-5.41-3.54-5.61-3.2-.54.93,17.07,8.39,16.44,9.49-.31.53-15.52-3.5-16.09-2.52-.93,1.6,4,.71,3.27,1.89" fill="none" stroke="#999" stroke-linecap="round" stroke-linejoin="round" stroke-width="1.28"/><path d="M365.94,352.28c0,.06,3.66,2.07,3.64,2.1s-.89,2.3-.93,2.36c-.16.27,4,1.84,3.8,2.19s4.63,5.66,4.38,6.09c-.37.64,7.76,3.1,7.16,4.14-.5.87-17.32-6.64-17.76-5.88S381.51,371,381,371.81c-.09.16-4.53-.33-4.67-.08-1.15,2,17.62,8.33,16.82,9.71-.44.77-12.67-1.18-12.89-.81-1.41,2.45,24.6,10.12,22.83,13.18-1,1.65-30.83-13.06-31.94-11.14-2.66,4.6,61.33,30.8,59.34,34.25-1.14,2-63-36.29-64.52-33.69-2.58,4.47,73.17,36.4,70.64,40.78-2,3.46-52.53-27.63-54.39-24.41s56.25,29.35,54.9,31.69c-1,1.67-35.79-17.91-36.63-16.47s32.9,16.25,31.72,18.31c-.44.76-23.4-9.13-23.81-8.42-.69,1.2,16.83,7.83,16,9.25-.5.86-16.47-4.69-17-3.86-.59,1,7.08,1.95,6.15,3.55-.26.44-7.16-2.46-7.29-2.24-1.08,1.87,8.43,2.33,7.33,4.23-.35.6-11-1.85-11.38-1.22-1,1.75,20.21,9,19,11s-33.1-16.1-33.71-15c-.85,1.46,30.19,16.21,29.66,17.12-1.11,1.91-29.91-17.44-30.59-16.27-.57,1,17.11,7.21,16,9.21-.32.55-17.4-5.64-17.67-5.15-.83,1.44,25.53,12.72,24.66,14.24-.59,1-21.46-7.12-21.92-6.33-1.19,2.05,23.09,10.87,22,12.71-.66,1.15-24.06-8.77-24.81-7.46s5.13,1.72,4.59,2.65S369,444.39,368.63,445c-.81,1.4,24.92,11.52,23.68,13.67-.66,1.13-25.19-15.19-25.82-14.1-.54.93,28.65,14.65,27.83,16.07s-23.07-14.22-24-12.6,24.07,11.55,23.05,13.31c-.45.78-14.34-8.15-14.78-7.4-.67,1.17,6.28,2,5.59,3.23-.11.19-5.74-2.24-5.88-2-.93,1.61,4.3.51,3.44,2-.19.34-8.74-5-9-4.45-.86,1.49,12.35,4.32,11.13,6.43-.66,1.14-17.1-8.69-17.74-7.58C365.28,453,389,462.48,388,464.24c-.46.8-17.35-10.6-17.83-9.77-1.16,2,17.21,8.49,16.59,9.58-.48.83-21.78-13.48-22.38-12.43-1.22,2.12,23.4,12,22.77,13.14-.77,1.33-22.57-9.22-23.11-8.29-1.07,1.86,14.94,6.62,14.07,8.12-.33.57-12.37-4.56-12.61-4.15-1.25,2.16,16.24,7.14,15.28,8.82-.32.55-18.61-6-18.94-5.46-.59,1,7.13,1.12,5.83,3.37-.38.66-19.12-6.37-19.71-5.34s17.09,8.08,16.32,9.42c-.53.91-21.77-10-22.25-9.15-.95,1.64,20.8,10.08,20,11.53-.31.54-18.33-4.88-18.71-4.22-.67,1.16,8.89,3.09,8,4.62-.43.75-13.62-5.4-13.9-4.92-.9,1.56,23.19,11.08,22.19,12.81s-33.14-15-33.94-13.57c-1.18,2,25.3,11.64,24,13.86-.45.77-25.51-10.89-26-10-.68,1.19,28.25,14.26,27.36,15.8-1.25,2.16-32-20.14-32.8-18.82-1.19,2.06,30.88,16,30.1,17.38-.91,1.57-25.39-11.88-26.25-10.39-1.08,1.87,18.07,7.16,16.66,9.61-.59,1-29.24-11.47-30-10.13s32.15,15.6,30.87,17.82c-.58,1-31.9-19.58-33.07-17.55-1.48,2.56,26.43,11.89,25,14.41-.6,1-26.68-12.18-27.69-10.43s22.48,11.31,21.76,12.56c-.51.89-28.26-18.13-29.11-16.65s26.77,11.86,25.21,14.55c-.71,1.24-25.91-15.81-27-14-.95,1.64,20.86,8.8,19.45,11.23-.85,1.46-23.06-7.39-23.49-6.66-.77,1.33,18.05,7.5,16.79,9.69-.65,1.12-19.93-12.14-20.4-11.32-1.42,2.46,32.85,16.42,31.75,18.33-1.35,2.34-38.24-19.14-39.07-17.69-1.1,1.9,33.09,16.12,31.8,18.36-1.4,2.43-36.75-17.29-37.71-15.61-1.71,3,32.37,16.16,31.27,18.05-.69,1.19-38.39-23.66-39.9-21-1.13,2,39.61,20.14,38.43,22.18-1.06,1.83-47.39-28.42-48.63-26.28-1,1.77,44.16,22.41,42.83,24.72-1.78,3.08-46.12-22.18-47.13-20.43C249.15,482.53,290.73,499,289,502c-1.94,3.37-48.41-27.07-50.19-24-1.32,2.28,42.28,20.61,40.63,23.46-1.49,2.58-44.47-25.66-46.17-22.71-1.85,3.21,42.15,19.83,40.2,23.21S211,467.54,208.7,471.47c-2.11,3.66,53.14,26.23,51.21,29.56-1.17,2-46.3-27.73-47.8-25.14s46.37,21.31,44,25.4c-1.92,3.33-76.61-42.32-78.89-38.38-2.08,3.59,65.73,30.52,62.51,36.09-2.23,3.85-74.35-49.09-77.09-44.35-1.85,3.2,80.61,39.84,77.71,44.86-2.6,4.51-71.37-46.69-74.06-42-2.48,4.29,83,39.2,79.22,45.73" fill="none" stroke="#999" stroke-linecap="round" stroke-linejoin="round" stroke-width="1.28"/><path d="M105.2,118.67c-1.5,2.6,63.22,32.05,61.3,35.38-1.67,2.9-60.13-36.27-61.38-34.09-2,3.54,71,34.55,68.21,39.38-1.2,2.09-63.37-36.47-64.64-34.27-2,3.51,71,35.68,68.7,39.66-1.62,2.81-62.73-38.64-65-34.63-2.61,4.52,63.75,31.83,61.6,35.56-.79,1.37-37.83-20.23-39.25-17.78-2.41,4.17,50,24.13,48,27.69-1.47,2.54-39.05-21.47-39.83-20.13-1.75,3,35.49,15.95,33.52,19.35-1,1.74-27.2-10.67-27.68-9.84-1,1.81,25.81,12,24.56,14.18-.2.35-9.25-4.14-9.54-3.65-.67,1.16,11.48,4.62,10.61,6.13-.39.68-12.92-3.05-13.36-2.3-.19.34,8.32,4.39,8.14,4.7s-5.73-2.77-5.9-2.47c0,.05,4.34,2.39,4.29,2.47" fill="none" stroke="#999" stroke-linecap="round" stroke-linejoin="round" stroke-width="1.28"/><path d="M372.5,36.21c-.3.51,16.07,8.42,15.7,9.06-1.48,2.57-43.59-20.33-44.58-18.62-3.22,5.58,69.5,34.9,67.24,38.81-3,5.12-73.71-44.36-75.59-41.1-3.4,5.88,92.69,47.48,90.08,52C423.23,80,320.64,11.87,318.25,16c-3.09,5.36,123.64,60.9,119.1,68.75C434.93,89,315.13,9.93,310.18,18.49c-4.77,8.26,141.11,70,136.16,78.6-5.4,9.35-148.68-86.63-151.82-81.2-5,8.66,168.53,85.81,163.56,94.42C453.88,117.59,280,2.92,275.87,10.09c-4.54,7.87,190,100.24,185.95,107.34C457,125.78,288.45,10.28,285.32,15.71c-6.92,12,182.41,92.74,177,102.16S274.84-3.65,267.41,9.21c-7.74,13.4,201.92,107.86,198.15,114.39-6.9,11.95-192-123.15-199.44-110.25-1.68,2.91,63.84,30,60.87,35.14-1.89,3.28-73.57-41.67-75.83-37.76-1.85,3.2,61.9,29.45,59.17,34.16-1.52,2.64-68.78-36.38-70.18-33.95s49.29,24,47.36,27.34c-1.61,2.79-48.81-27.72-50.12-25.46-2,3.43,43.88,21.11,42.06,24.28-1,1.79-42.55-25.57-44.15-22.8-1.37,2.38,43.62,21.95,42.22,24.37-.89,1.54-51.11-27.22-52.07-25.54-1.48,2.57,40.95,19.49,39.15,22.6-1.12,1.95-33.2-19.44-34.2-17.72-2,3.45,38.81,17.74,36.79,21.24-1.45,2.5-54.57-29.67-56.38-26.53-1.22,2.12,37.23,18.47,35.92,20.73-.57,1-29.3-16.93-29.9-15.88-1.71,3,38.59,19.29,37.3,21.53S207.4,10.71,205.5,14c-.86,1.49,36.8,18.79,35.73,20.63-.79,1.38-30-13.52-30.92-11.85-1.72,3,28,12.54,26.46,15.28C236,39.41,197.25,16.69,195.93,19c-1,1.71,31.27,16.25,30.49,17.6-.58,1-24.9-13.76-25.83-12.15-1.43,2.47,20.47,9,19.26,11.12-.56,1-22.1-11.85-22.79-10.66-.91,1.57,15,5.1,13.45,7.76-.73,1.26-19.78-7-20.27-6.16-1.57,2.71,24.62,10.94,23.2,13.39-.49.84-24.76-15.6-25.52-14.29s22.63,9.53,21.1,12.18c-.76,1.31-38.94-17.24-39.74-15.86-1.42,2.46,31.07,15.78,30.14,17.4S175.73,28.14,175,29.43c-1.39,2.41,22.22,9.51,20.78,12C194.52,43.58,165,23,163.8,25.19s26,12,24.7,14.26c-.36.62-14.32-6.7-14.6-6.22-.8,1.38,13.24,4.74,12,6.92-.4.69-10.62-6.29-10.87-5.86-.86,1.49,21.3,10.09,20.34,11.74-1.2,2.08-31.92-16.2-33.14-14.08s27.44,12.51,26,15c-.86,1.48-32.26-17.14-33.16-15.59C154.4,32.5,176.44,40.8,175.18,43c-.67,1.16-20.52-7.31-20.94-6.58-.86,1.49,20.57,9.56,19.57,11.3-.75,1.3-27.29-12.09-28.27-10.38-.85,1.48,17.77,8.55,17,9.83-.51.88-16-9.94-16.39-9.22C145.23,39.58,172,50.47,171,52.24c-.88,1.52-29-16.84-30-15s24.7,12.16,23.79,13.73C164.12,52,138.19,39,137.53,40.15S169.2,56.55,168.39,58s-24-9.75-24.61-8.61,4.68.85,3.88,2.24c-.28.49-16.65-8-17.1-7.27-1.09,1.9,27.66,13.73,26.69,15.41-.64,1.11-22.78-9.24-23.23-8.45-.81,1.39,13.08,5.76,12.31,7.1-.64,1.11-21.43-6.78-21.86-6-1.27,2.2,13.86,6.55,13.23,7.64-.41.71-14.86-4.57-15.26-3.89-.56,1,17,7.46,16,9.23-.55.95-14.59-6.28-15-5.52-.82,1.42,7.73,2.08,6.7,3.87-.45.78-16.13-3.59-16.54-2.89-1.19,2.06,13.6,6.52,13,7.52-.39.67-18.07-8.85-18.46-8.18-1,1.74,17.44,8.24,16.65,9.61-.47.82-21-10.34-21.82-8.95s19.92,9.47,19,11c-.66,1.15-18.47-11.43-18.87-10.74-1,1.81,24.29,11.31,23.12,13.34-.32.56-16.3-7.3-16.59-6.8-1.14,2,10.83,4.24,10,5.75-.29.51-11.88-6.38-12.35-5.56-.86,1.49,12.47,5.69,11.82,6.82-.37.64-11.06-1.45-11.27-1.09-.69,1.19,14,5.39,12.85,7.42-.65,1.12-19-5.17-19.38-4.44-1.1,1.9,5.89,1.71,5.15,3,0,0-1.37-.34-1.4-.28-.74,1.28,9.26,3.78,8.58,5-.54.94-22.79-10.32-23.43-9.21-1,1.65,13.48,6,12.69,7.33-.24.42-14.72-4.15-15.07-3.54-.72,1.25,10.94,3.81,9.85,5.69-.17.3-6.76-1.65-6.93-1.36-.52.89,12.81,5.15,11.84,6.83-.24.42-10.16-2.75-10.41-2.33-1.42,2.46,11,3.71,9.85,5.69-.29.51-9.65-4.58-10-4-1.09,1.88,18.27,7.38,16.9,9.75C108,100.54,79.7,87.48,79,88.61c-1.34,2.31,51.45,24.81,49.33,28.48-1.18,2-45.61-24.87-46.87-22.67C80,97,136.45,119.77,133.7,124.54c-1.2,2.07-52.12-26.63-53.56-24.15-1.95,3.37,73.37,37.08,71.09,41-1.69,2.93-83-50.87-85.54-46.51-2.4,4.15,106.23,52.47,102.4,59.11-1.59,2.75-86.74-55.13-90.33-48.93-1,1.81,5.29.88,4.35,2.51-.35.61-16.2-3.25-16.45-2.81-1.12,1.94,11.07,5.06,10.49,6.06-.42.72-14.26-7.77-14.7-7-1,1.72,23.88,11.24,22.78,13.15-.74,1.28-20.5-11.09-21.14-10-1.08,1.88,9.91,4,9.16,5.29-.25.43-7.58.87-7.82,1.28-.85,1.48,16.67,7.3,15.66,9-.76,1.31-26.36-11-27.17-9.63-1.06,1.83,19.25,9.42,18.51,10.69-.23.4-6.71-2.2-6.9-1.86-1.08,1.87,7.63,2,6.59,3.81-.43.74-17.45-9-18-8-1,1.67,13.13,5.47,12.21,7-.21.37-4.4,4-4.51,4.23-.82,1.42,2.54-.11,1.86,1.07-.22.38-8.16.92-8.38,1.3-.58,1,3.75.67,3.1,1.79-.17.3-5.1,1.59-5.24,1.83-.8,1.38,14.76,6.3,13.8,8-.57,1-22-11.58-22.68-10.47-.73,1.26,13.48,5.84,12.64,7.3-.43.75-12.38-2.9-12.6-2.51-.94,1.63,10.9,4.29,10,5.79-.29.51-8.33-2.28-8.55-1.9-.93,1.62,6.48,2,5.71,3.3-.1.17-.51,4.34-.65,4.58-1,1.75,10.3,4.38,9.62,5.55-.3.51-13.45-6.28-13.89-5.5-1,1.65,3.65.76,3.07,1.77-.34.58-16.76-7.25-17.31-6.29-.77,1.33,21.33,10.36,20.48,11.82-.15.26-9.34-1.84-9.56-1.46-1.09,1.88,13.72,6.45,13.08,7.55-.78,1.35-21.26-11.86-21.79-10.94-1,1.73,19.44,9.8,18.83,10.87-.28.49-8.77-.34-9,.1-.8,1.38,13.76,6.68,13.21,7.63s-21.2-11.42-21.86-10.28c-1.1,1.9,7.67,2.43,6.81,3.93-.13.22-7.16.44-7.39.83-1,1.81,16.75,7.17,15.67,9-.71,1.22-25.19-11.41-25.7-10.53-.61,1.06,21.1,9.69,20,11.56C43.86,175,34,171.68,33.77,172c-.79,1.38,6.63,2.22,5.94,3.43-.58,1-17.44-5.09-18.07-4s25,13.11,24.42,14.09c-.3.52-14.61-7.95-15.14-7s6.91,2.72,6.36,3.67c-.37.63-16.27-3.38-16.58-2.84-.95,1.64,25.82,12.29,24.69,14.25-.44.76-24.78-10.56-25.29-9.67-.78,1.35,19.86,8.92,18.76,10.83-.31.54-10.67-6.87-11.09-6.14-.77,1.34,13.82,5.9,12.92,7.46-.52.9-14.12-5.91-14.62-5.06-.88,1.53,8.71,2.91,7.79,4.5-.31.53-12.32-5.94-12.56-5.52-.9,1.55,15,7.39,14.47,8.35-.2.35-7.26-2.73-7.51-2.28-1.08,1.86,2.21-.62,1.39.8-.27.46-12.79-1.84-13-1.4-1.15,2,13.31,5.45,12.34,7.12,0,.08-1.09.6-1.13.66-.64,1.11,5.78,1,4.77,2.75-.15.26-7.46-2.15-7.65-1.82-.92,1.6,6.31,1.17,5.24,3-.26.45-11.94-.73-12.16-.35-.53.92,15.08,6.09,14,8.05-.38.66-21-6.8-21.37-6.19-.71,1.23,23.23,12.18,22.7,13.11-.28.49-8.49.41-8.67.73-1.1,1.91,7.79,3.22,7.24,4.18-.32.55-17.52-6.24-17.86-5.65-.73,1.26,15.59,7.34,14.87,8.58-.37.64-17.39-8-17.71-7.47-.88,1.52,16.33,7.79,15.62,9-.08.14-3.88-.38-4-.19-.65,1.13,4.8,1.28,4.16,2.4-.29.5-7.11-4.1-7.38-3.62-1.16,2,17.22,7.68,16.24,9.37-.61,1.06-17.3-4.16-17.93-3.07s12.09,5.54,11.47,6.62c-.18.32-11.46-.38-11.65,0C16.76,244.3,37.86,253,37.29,254s-20.66-11.56-21.45-10.18c-.71,1.23,18.62,8.37,17.59,10.15-.44.75-12.79-2.88-13.06-2.42-.6,1,4.37.56,3.52,2-.31.53-11.38-7-11.68-6.47-1.16,2,23.8,10.93,22.59,13-.61,1.06-24.34-10.58-24.78-9.81-.9,1.56,20.14,10.33,19.58,11.3-.36.63-12.51-2.6-12.71-2.25-1.28,2.21,7.64,2.11,6.65,3.84-.23.4-11-6-11.41-5.35-.81,1.4,25.84,12.66,24.87,14.35-.83,1.44-28-12.08-28.73-10.85-1.3,2.25,22.36,9.87,21,12.15-.61,1-20.95-12.32-21.54-11.29-.94,1.63,29.77,14.32,28.53,16.47-.65,1.13-19.81-8.29-20.51-7.07-.88,1.52,12.32,4.22,11.07,6.39-.28.49-9.72-.56-10-.06-1.24,2.15,18.48,8.5,17.54,10.12-.46.8-18-5.69-18.48-4.91-.95,1.64,23.86,12.05,23.12,13.34-.94,1.63-26.35-15.26-27.32-13.59-.68,1.17,27.58,13.49,26.53,15.31-.79,1.36-24.91-10-25.72-8.58s23,10.13,21.65,12.5c-.35.6-15.71-9.13-16.24-8.22-1.31,2.27,25.79,12.1,24.59,14.19S13.4,290.05,12.23,292.08c-1.44,2.49,20.48,9.15,19.32,11.16-.53.91-16.9-9.21-17.35-8.43-.9,1.56,31.86,15.53,30.62,17.67C43.93,314,22.5,299.35,21.6,300.91c-1.24,2.14,11,4.55,10.26,5.92-.26.44-14.18-4.85-14.58-4.17-.95,1.64,24.2,12.28,23.47,13.55-1,1.65-25.7-13-26.51-11.61s23.43,11,22.33,12.89c-.51.88-21.14-11.62-21.53-10.94-1.1,1.9,29.91,15,28.93,16.7S10.16,301.88,9,303.83c-.95,1.64,36.66,17.9,35.25,20.35-.8,1.38-28.87-17.56-29.84-15.86C13.59,309.79,50,326.1,48.8,328.14c-.47.82-24.63-11.81-25.45-10.39-1,1.65,25.53,12.27,24.46,14.12-.48.84-23-9.5-23.68-8.26-1.61,2.79,21.5,9,20,11.56-.71,1.23-21.74-10.44-22.32-9.43-1.25,2.17,34.57,18.22,33.81,19.52-.9,1.56-35.47-16.46-36.7-14.31-1.59,2.75,43,20.78,41.28,23.83-.92,1.6-32.17-15.76-33.15-14.06-1.2,2.07,34,17.16,32.9,19-.66,1.13-38.2-20.11-38.91-18.87-1,1.71,46.69,24.9,45.8,26.44-1.21,2.1-40.08-20-41.37-17.76s34.6,16.92,33.28,19.21c-.93,1.62-25.25-12.75-26.18-11.14-1.35,2.34,43.07,20.63,41.24,23.8-.93,1.61-34.18-21-34.82-19.93C37.91,363.38,78.12,380,76.36,383c-1.42,2.45-44.51-25.64-45.37-24.16-1.16,2,51.56,27.45,50.56,29.18-1.15,2-42.33-20.59-43.58-18.43-2.1,3.64,42.51,21.28,41.1,23.72-.88,1.52-36.26-21.71-37.18-20.13-2.13,3.68,43.33,19.25,40.84,23.57C82,398,41.92,375.93,40.95,377.62c-1.69,2.93,62.47,29.66,59.69,34.46-1.7,2.94-61.77-37.5-64.12-33.43-1.63,2.82,75,38.87,73.06,42.17-2.5,4.32-67.95-40.42-69.92-37-3.43,5.94,83.75,43.12,81.48,47-2.64,4.58-69.67-41.68-71.24-39C46,398.62,249.44,494.62,244,504c-7.46,12.91-186.5-117.71-192-108.13s186.94,92.11,180.09,104c-6,10.45-177.59-112.9-182.2-104.91-7.52,13,183.57,96.67,179.54,103.64-5.22,9-177-117.6-183.84-105.76C41.51,399.86,245.9,494.2,239.75,504.85c-6.42,11.12-176-114-182-103.63-7.68,13.3,180.55,92.85,175.63,101.38-4.79,8.3-172.71-101.93-176.65-95.11s168.94,83.48,162.86,94c-3.31,5.74-145.39-92.13-150.06-84-4.78,8.28,146,76.51,142.6,82.32S78.56,415.85,73.45,424.7c-4.85,8.41,141,71.66,136.77,79-4.63,8-125.12-76.26-129.42-68.81-3.26,5.65,109.66,53.6,105.46,60.88C184.7,498.42,99.83,448,98.08,451c-2.1,3.63,67.26,34.48,65.38,37.74-.76,1.32-40.17-21.95-41.07-20.39s12.3,3.94,10.93,6.31c-.29.5-9.25-5.49-9.6-4.87s16,8.14,15.52,9" fill="none" stroke="#999" stroke-linecap="round" stroke-linejoin="round" stroke-width="1.28"/><path d="M78.07,77.75c96.48-100.89,255.29-107,357.94,12,93.72,94.64,98.53,239.79-2.61,335.54C334.91,541.8,173,531.14,78.51,441.44-22,341.42-19,172,78.07,77.75Zm257.82,22.73c9.62-2.41,15.2.26,16.07,21.05-1.4-3.25.43,274.53-1,272.18.71,19.09-6.06,18.56-14.91,23.27,2.24.23-85.2-100.85-86.21-100.09,1.61,4.91-80.28.1-78.78,1.45-7.93-3.73-11.06-7.88-11.11-5.75-1.25-.31-1.82-109.76,3.32-113.43-2.21-7.89-1.14-5.54,8.47-3.94-4.45,1.54,80.4,1.23,81.57,1.33C252.54,194.43,339.43,96.71,335.89,100.48ZM109.08,93.1c-1.92-2.25,86.09,81.51,93.62,97.73-8.74-2.07-37.38-15.34-34.46-13.16-4.55,10.84-78.69-70.91-74.69-56.92-80,79.4-75.35,204,8.57,286.73,84.27,91.67,217,87.5,300,10.19,0-3.8-32.81-39.26-39.53-29.82,3.74.62,2.43-34.38,7.62-43,1.52-.26,45.79,60.65,49.36,58.19,75.11-79.51,76.66-213.53-7.34-295.49C330.33,19.85,197.32,10.81,109.08,93.1Z" fill="none" stroke="#666" stroke-width="3.19"/><path d="M74.89,77C184.3-13,339.22-16.9,438.5,78.17c86.66,96.46,91.95,253.66-11.62,360.52-97,92.27-256.84,91-340.51-6.14C-8.24,330.88-12.29,175.85,74.89,77ZM337.65,99.06c9.22,5,14.4,8.82,15.85,14.7C349,114.08,351,395.55,349,402.69c-.58,3.86-7.64,9-6.91,9.7-2.26-3.89-95-93.42-89.14-92-5.37.18-81.6,0-81.14.67-4.46-1.67-9.08-6.74-13.18-13,2.65,1.35.52-104,.54-105,5.37-7.35,7.64-9.23,5.6-10.62,8,4.09,89.26,2.74,88.68,3.3C251.55,196.32,338.27,101.17,337.65,99.06ZM106.47,92.29c10.72,5.81,96.34,89.73,94.16,90.07-4.7-2-32.27-2-43,2.44,4.79.53-68.81-71.56-57.42-77.8-74.73,86.55-86.07,222,6.05,306.71,72.49,80.62,211.71,83,304.27,9.23-6-3.85-41.67-40-44.39-40.44-.56.76-5.34-30.82,1.22-28.83,5.59-6.38,51.85,47.3,43.54,50.06,87.37-83.74,84.61-216.52,4.82-298.82C326.43,25.4,199.56,17.58,106.47,92.29Z" fill="none" stroke="#4c4c4c" stroke-width="2.4"/></svg>