<svg id="Layer_1" data-name="Layer 1" xmlns="http://www.w3.org/2000/svg" viewBox="0 0 512 512"><title>pause-volume-handdrawn</title><path d="M226.9,6.56s3.41,1.91,3.39,2c-.12.2-6-2.16-6.11-2s6.19,3.39,6.11,3.53c-.27.47-10-4-10.29-3.46-.18.31,6.82,3.57,6.66,3.84S220,6.13,219.75,6.56s10.84,5.56,10.54,6.08S215.63,9.29,215.4,9.7c-.45.78,13.13,6.65,12.73,7.35s-15.62-5.49-16-4.86c-.74,1.29,17.78,9.09,17.28,10s-28.54-13-29.42-11.5S223.93,23,223.27,24.09,199.7,13.69,198.92,15c-.91,1.57,32,15.85,30.85,17.81C228.38,35.26,183,6.91,181.24,10c-1.64,2.84,46.41,24.06,45.23,26.1-1.77,3.06-53.89-31.37-55.24-29-1.86,3.23,51.46,24.54,49.22,28.41-1.53,2.64-51.82-28.23-53-26.19-1.4,2.42,63.67,31.44,61.37,35.42-2,3.44-65.62-37.41-67.31-34.49-1.32,2.29,60.92,30,58.67,33.86C218.81,46.5,169.07,11.3,167,14.85c-1.34,2.32,60,30,58,33.48S148.81,3.85,145.83,9c-1.72,3,79.56,42.26,78,45-3.06,5.3-86-50.47-88.73-45.7-1.84,3.18,87.73,43.59,84.68,48.87-2,3.52-74.36-46.48-76.1-43.47-3.43,5.93,84.27,40.25,80.64,46.54-2.16,3.74-80.57-51.08-83-46.93-2.75,4.77,80.19,39.77,77.37,44.65s-94-55.53-97.12-50.17c-2.08,3.6,110.55,56.32,107.31,61.93-4.05,7-111.61-63.56-113.95-59.52s118.1,59.36,114.29,66C224.87,83.73,106.68-.55,101.79,7.9c-4,7,122.82,63,119.39,68.9-4.24,7.35-110.95-70.39-115.42-62.65C101.43,21.65,228.38,77.09,225,83,222.14,87.88,101.54,4.52,98.21,10.27c-2.51,4.35,127.44,65.58,124,71.55-2.9,5-120.4-73-124.27-66.27-4.38,7.59,122.45,63.5,119.34,68.87C212.73,92.29,94.14,7.48,89.45,15.59,85.75,22,220,82.19,216.23,88.75c-4.83,8.36-126.17-76.48-129.34-71-6,10.46,132.88,68.63,129.39,74.67S91.27,14.5,86.39,23c-2.77,4.79,144.39,75.43,141,81.35C223.64,110.75,88,19,83.83,26.26c-3.36,5.82,149.61,79,146.43,84.51C225.27,119.41,88.83,23.11,83.1,33c-5.63,9.76,147.24,71.67,141.48,81.65-5.2,9-128.69-74.66-131.86-69.17C87,55.32,227,113.37,222.84,120.6,219,127.32,89,37.18,85.95,42.52c-2.72,4.71,134.69,66.22,129.7,74.85C213.26,121.51,94,38.19,89.43,46.11c-3.27,5.66,133.43,66.11,128.71,74.28-3.41,5.9-131.67-79.14-136-71.59-3.23,5.58,141.36,67.68,135.34,78.1C213.57,133.61,94.82,48.53,91,55.23c-4.34,7.52,139.26,70.82,135.13,78-3.88,6.72-132.3-82.11-136-75.78-6,10.44,129.79,62.35,124.35,71.76-3.6,6.23-119.61-70.6-123-64.77-3.72,6.44,136.91,65,130.84,75.51-2.89,5-139.54-87.32-144.19-79.27-3.45,6,139.55,73.49,136.49,78.77C211.83,144.28,89.49,61.14,86,67.11c-2.77,4.8,147.63,75.48,143.42,82.77C225.66,156.48,88.8,61.06,84,69.34c-4,6.93,142.26,75.27,139.3,80.39C219,157.13,94.9,73.35,92.24,78c-5.06,8.75,131.9,67.23,128,73.9-4.45,7.7-139.21-83.93-141.94-79.21-3.8,6.57,146.21,72.34,141,81.37C214.71,162,91,74.57,88.25,79.33c-5,8.67,142.94,70.94,137.94,79.6-4.74,8.21-142.82-91.14-147.32-83.35-5.55,9.61,139.93,72.57,136.39,78.71-4.63,8-124.22-78.07-128.49-70.68-3.82,6.61,141.78,71.9,137.48,79.34-3.67,6.35-136.57-84-141.05-76.28-4.07,7,148.19,77.57,144.74,83.53C224.75,175.72,82.21,84,78.86,89.84,73,100,223.22,164.86,219.63,171.08c-2.71,4.69-130.94-75.34-133.21-71.41-3.39,5.87,146.07,77.89,143.29,82.69-3.12,5.41-144.43-88.27-149-80.28-4.37,7.57,139.51,73.55,136.49,78.77-3.32,5.75-135.58-78.59-138.07-74.28C75.35,113,231,181.51,225.47,191c-5.23,9.06-132.17-83-135.4-77.38-5.42,9.39,146.2,70.42,140.16,80.88-4.61,8-144.15-94.53-150-84.39-3.93,6.8,146.45,77.38,143.36,82.73C220.23,198.67,89,108.28,84.25,116.54c-5,8.73,146.77,73.78,142,82-3.66,6.33-134.82-81.19-138.93-74.07-2.8,4.84,136.6,64.87,130.55,75.34C214,206.52,83.1,121.89,80.17,127c-4.3,7.44,137.8,70.16,133.74,77.18-3.78,6.55-129-83.64-133-76.7-5.29,9.16,137.09,71.94,134,77.32-2.69,4.66-122-73-124.81-68.15C84,147,222,199.52,216.24,209.43c-2.86,4.95-122.8-76.57-127.68-68.13s142.72,75.92,139.93,80.75c-3.38,5.85-139-84.65-143.18-77.4-5.43,9.4,141.53,69.91,136.43,78.73-3.07,5.32-137.21-86.12-141-79.47C75.46,153,226,215.82,220.85,224.8,217.79,230.08,85.11,144.21,81.73,150c-4.18,7.24,139.61,72.83,136.26,78.64C213,237.26,82.73,146.63,78.84,153.36c-5.72,9.9,150.63,80.57,147.87,85.34C223.06,245,84.46,153.38,81,159.44c-3.83,6.63,138.22,68.28,133.24,76.89-3,5.26-132.11-87.06-137.43-77.86-3.69,6.4,156.58,77.25,150.9,87.08-3.58,6.19-143.79-87-146.68-82-4.74,8.21,149.84,76.64,145.58,84-3,5.15-145.5-93.89-150-86.17-4.61,8,140.71,73.69,137.46,79.33-2.4,4.16-127.37-77.48-130.33-72.35-3.86,6.68,142,75.25,139.13,80.29C217.05,258.77,79.74,160.34,76.49,166c-4.71,8.16,148.89,77.35,145.18,83.78C219.08,254.22,85.32,170.67,82.25,176c-4.25,7.36,140.81,69.84,135.87,78.41-3,5.13-126.1-79.61-129.09-74.44-3.48,6,135.45,70.22,132,76.18C216,264.9,96.85,173.72,92.13,181.9c-3.87,6.7,135.3,69.51,131.58,75.93-4.28,7.41-138-91.18-143.18-82.22-3.85,6.66,144.94,76,141.64,81.74-4.89,8.46-139.51-83.26-142-78.94-2.86,5,138.73,72,135.23,78-2.84,4.92-123.29-77.67-127.67-70.09-3.93,6.81,139.63,73.85,136.71,78.9C219.4,274,86,179,82.68,184.7c-5.09,8.8,139.48,66.83,133.56,77.08-3.16,5.47-123.43-74.07-127.35-67.28s128,67.5,125.28,72.3c-2.24,3.87-121.07-75.5-125-68.75s140.43,67.79,134.69,77.73c-3.9,6.75-133.79-82.6-138.28-74.83-5.71,9.88,137.83,68.16,132.9,76.7-2.59,4.49-126-77.9-128.88-73-5.49,9.5,134.31,67.45,130,75C216.31,285.35,90,196.89,85.29,205c-3.35,5.8,138,66.32,132.26,76.33-4,6.9-134.76-80.74-138.13-74.9-2.93,5.07,140.19,71.12,136,78.46C213,289,86.58,211,83.67,216c-5.47,9.47,139.32,68.35,134.1,77.39-3,5.26-125.77-75.25-128.25-71-4.2,7.27,134.11,63.74,128.19,74-4.79,8.28-134.06-83.59-138.95-75.12-3.25,5.62,153.23,75.1,147.46,85.1-4.62,8-130.88-80.07-135-72.89-4,7,142.6,70.23,137.37,79.28-4.25,7.37-145.51-93.94-150.08-86-3.47,6,153,77.19,148.15,85.5C223.07,318.42,85,227.59,81.37,233.9c-5.1,8.83,148.51,78.22,145.27,83.83-2.54,4.4-129.81-81.54-135-72.55-6,10.32,132.08,69.93,129.35,74.65-4.9,8.49-128.09-79.78-131.24-74.33-3.51,6.07,134.64,65.88,129.52,74.74-4.34,7.52-132.84-84.8-137.93-76-2.95,5.1,140.49,73.46,137.19,79.17-4.47,7.74-130.34-81.17-134-74.75C81.31,254.19,222,321.36,219.1,326.38c-4.61,8-125.57-79.24-129-73.28-5.55,9.61,134.46,68,130.33,75.21C216.54,335,89.07,252.6,86.16,257.65s143.68,70.5,138.3,79.81c-2.78,4.81-128.61-77.78-133-70.19-2.79,4.83,137.8,69.4,133.41,77-2.68,4.64-139.94-84.71-143.72-78.18-5.22,9,150.59,78.19,146.82,84.73-2.88,5-146.87-92.39-151.23-84.84-5.31,9.2,156.16,76.18,150.12,86.64C223.73,358,90.86,264.92,86,273.38s145.46,69.86,139.36,80.42c-5.24,9.07-132-78-134.94-72.87-3.15,5.45,127.17,65,123.55,71.3-2.83,4.91-123-72.8-125.54-68.44-5.63,9.75,131.78,64.82,126.92,73.24-2.48,4.29-135.38-78.84-137.76-74.72-4.3,7.44,140.21,71.9,136.31,78.66C209,369.43,83.17,279,78.46,287.13c-5.87,10.17,150.15,77.05,146,84.25-3.45,6-137.65-87.51-142.19-79.67C78.56,298.14,227.4,365.49,223.08,373S93.72,287.83,89,296.07c-3.72,6.44,142,71.35,137.41,79.3C223.42,380.46,80,287.87,76.9,293.29c-4.81,8.33,154,77.88,149.25,86.13-3.32,5.74-133.7-81.16-136.62-76.1-4.35,7.54,135.09,64.06,129.07,74.48-2.71,4.69-132.27-82.14-136.76-74.36-3.81,6.6,148,76.41,144.07,83.14-2.45,4.24-134.47-83.48-137.6-78.07-4.22,7.3,133.4,66.93,129,74.47-5.08,8.79-134.45-85-138.21-78.54-4,6.93,150.86,80,147.8,85.3-3.51,6.08-139.76-91.39-144.52-83.15-5.38,9.32,141.65,71.76,137.32,79.25-2.26,3.92-124.62-75.24-128-69.47-5,8.67,126.16,65.62,123,71s-133-85.94-137.56-78.05c-3.72,6.45,150.81,80.1,147.81,85.3S90.17,313.74,86.56,320c-4,6.92,143,74.9,139.73,80.64-5,8.57-131.36-74.85-133.82-70.58-3.83,6.63,133,64.93,127.91,73.81-3.49,6-129.12-84.4-133.75-76.38C82.3,335,233.46,399.85,228.11,409.13c-4,7-138-90.17-143.43-80.73-5.92,10.25,138.17,67.49,132.87,76.68-2.36,4.09-126.17-76.32-128.43-72.41-3.75,6.49,139.8,73,136.47,78.76C219.92,421.22,86.27,325,82.4,331.74c-3.64,6.3,145.76,70.08,139.68,80.61-3.72,6.45-142-81.16-144.55-76.75-3.31,5.73,151.82,74.27,146,84.28C219.1,427.6,88,335.61,82.79,344.54c-5.5,9.52,147.83,77.76,144.56,83.42-3.55,6.14-135.76-87.59-140.14-80-3.58,6.2,131.38,68.06,128,73.88C211.07,429,91.14,340.45,86.68,348.17c-4.68,8.1,142.89,70.12,137.55,79.38-2.93,5.08-141.2-92.1-146.62-82.71-3.66,6.34,148.3,76.79,144.49,83.38-5.68,9.83-139.89-82.93-143.22-77.16-4.57,7.92,150,73.28,144.21,83.22-4,7-140.52-90.24-145.34-81.9-2.92,5.06,149,76.55,144.89,83.61-2.44,4.22-138.06-84.83-141.13-79.52-2.7,4.67,148.38,75.24,143.88,83S94,363.35,91.53,367.68c-3.95,6.84,139.37,70.9,135.25,78-5.09,8.81-132.2-81.42-137.22-72.71s136.89,67,131.68,76c-4.37,7.56-127.65-75.53-130.42-70.73-4.9,8.49,130.33,68.86,127.58,73.62-4.35,7.54-131.31-83-135.6-75.56S221.4,445.1,216.54,453.53c-4.36,7.55-132.51-80.91-136-74.81-3.25,5.62,148.56,75.35,144.06,83.13-2.69,4.65-136-88.14-141.28-79s145,77.31,142.26,82.1c-3.23,5.6-128.75-84.46-134-75.32-4.77,8.26,135.7,71.85,132.9,76.7C220,473.95,95,382.69,90.7,390.12c-4.83,8.37,134.36,64.17,128.57,74.19C213.67,474,82,376.71,76.78,385.77s151.6,74.91,146.15,84.34C218.44,477.9,87.8,388.5,83.49,396c-5.72,9.91,137.36,68.76,132.81,76.64-3.16,5.48-130.69-79.38-134.2-73.3-3.66,6.33,139.71,70.29,135.23,78-5.26,9.1-127.42-82.39-131.63-75.09-3.59,6.21,134.51,67,129.93,75C210.68,485.81,87.91,403,84.67,408.61c-4,7,136,66.29,130.7,75.42C211,491.52,91.54,407.92,88,414c-3.3,5.71,139.67,67.17,133.85,77.24-3.7,6.4-130.35-79.1-135-71.13-3.82,6.62,139.13,67.5,133.59,77.09-4.77,8.26-126.93-73.05-129.65-68.35-5.25,9.09,126.4,66.58,123.65,71.35-3.95,6.83-119.79-74.08-123.86-67-4.41,7.64,125.7,62.21,121.22,70-5.13,8.88-128.49-74.71-131.78-69-2.2,3.81,114.13,56,109.84,63.39-3.72,6.44-97-60.79-99.11-57.08C86,448.83,204.39,497.88,200.88,504c-4.12,7.13-105.66-60.76-108.07-56.6-2,3.46,88.72,41.9,84.69,48.88-1.73,3-91.8-56.14-93.51-53.17-3.67,6.35,109.1,56.6,106.34,61.37C187.7,509,85.46,445.88,83.56,449.17c-2.43,4.21,92.76,44.34,88.78,51.23-2.54,4.4-78.11-41.32-79.66-38.64-3.57,6.18,66.22,30.58,62.92,36.31-2.67,4.62-69.79-44.68-71.94-40.95-1.85,3.2,82.9,41.43,80.12,46.24-1.44,2.49-80.22-47-83.38-41.58-2.27,3.93,67.7,35.48,66.15,38.17-1,1.74-52.23-33.07-54.39-29.34-1.76,3.05,58.91,28.75,56.64,32.68-1.69,2.92-66-40.85-68.39-36.64-1.53,2.65,60,28.81,57.52,33.19-1.55,2.69-54-33.74-55.85-30.61s55.37,29.13,54.15,31.25c-1.94,3.35-52-33.63-53.64-30.77-2.6,4.51,53.4,27.22,51.84,29.92-1.65,2.85-43.8-26.83-45.1-24.59-2.56,4.43,45.23,21,43,24.82C131,502.16,90.6,474.06,89,476.8c-1.9,3.3,35.53,17.32,34.15,19.71-1.11,1.92-39-25.59-40.51-23-2.15,3.73,57.18,29.24,55.55,32.06-1.92,3.32-50-30.4-52-26.93-1.58,2.73,44.56,21.65,42.8,24.7-1.49,2.58-40.19-20.45-41.6-18s36.6,17.47,35,20.21c-1.11,1.92-39.22-21.42-40.27-19.61-.68,1.18,27.09,14,26.38,15.22-.34.6-19.4-7.27-20-6.24-.75,1.3,17,7.6,16,9.25-.8,1.38-22.18-8.35-22.64-7.55-.33.57.76-.71.26.15-.13.22-5.59-.22-5.74,0-.32.55,15.9,8.46,15.59,9-.44.77-15-5.46-15.59-4.48-.13.22,8,4.15,7.78,4.49s-7.48-4.87-7.78-4.35c-.11.18,7.61,4.2,7.53,4.35-.17.3-7.27-2.4-7.53-2,0,0,3.41,1.91,3.39,2" fill="none" stroke="#999" stroke-linecap="round" stroke-linejoin="round" stroke-width="1.27"/><path d="M433.16,6.56s3.41,1.91,3.39,2c-.12.2-6-2.16-6.11-2s6.19,3.39,6.11,3.53c-.27.47-10-4-10.29-3.46-.18.31,6.82,3.57,6.66,3.84S426.25,6.13,426,6.56s10.84,5.56,10.54,6.08-14.66-3.35-14.9-2.94c-.45.78,13.13,6.65,12.73,7.35s-15.62-5.49-16-4.86c-.74,1.29,17.78,9.09,17.28,10s-28.54-13-29.42-11.5S430.18,23,429.53,24.09,405.95,13.69,405.18,15c-.91,1.57,32,15.85,30.86,17.81C434.63,35.26,389.3,6.91,387.49,10c-1.64,2.84,46.41,24.06,45.23,26.1-1.77,3.06-53.89-31.37-55.24-29-1.87,3.23,51.46,24.54,49.22,28.41-1.53,2.64-51.82-28.23-53-26.19-1.4,2.42,63.67,31.44,61.37,35.42-2,3.44-65.62-37.41-67.31-34.49-1.32,2.29,60.92,30,58.67,33.86-1.37,2.38-51.11-32.82-53.16-29.27-1.34,2.32,60,30,58,33.48S355.06,3.85,352.08,9c-1.72,3,79.56,42.26,78,45-3.06,5.3-86-50.47-88.73-45.7C339.5,11.47,429.06,51.88,426,57.16c-2,3.52-74.36-46.48-76.1-43.47-3.43,5.93,84.27,40.25,80.64,46.54C428.4,64,350,9.15,347.59,13.3c-2.75,4.77,80.19,39.77,77.37,44.65s-94-55.53-97.12-50.17c-2.08,3.6,110.55,56.32,107.31,61.93-4.05,7-111.61-63.56-113.95-59.52s118.1,59.36,114.29,66C431.12,83.73,312.93-.55,308,7.9c-4,7,122.82,63,119.39,68.9C423.19,84.14,316.49,6.41,312,14.15c-4.33,7.5,122.61,62.94,119.23,68.8-2.85,4.93-123.45-78.43-126.78-72.68-2.51,4.35,127.44,65.58,124,71.55-2.9,5-120.4-73-124.27-66.27-4.38,7.59,122.45,63.5,119.34,68.87C419,92.29,300.39,7.48,295.71,15.59,292,22,426.27,82.19,422.48,88.75c-4.83,8.36-126.17-76.48-129.34-71C287.1,28.22,426,86.39,422.52,92.43S297.52,14.5,292.64,23c-2.77,4.79,144.39,75.43,141,81.35-3.72,6.44-139.37-85.26-143.53-78-3.36,5.82,149.61,79,146.43,84.51-5,8.64-141.43-87.66-147.16-77.74-5.63,9.76,147.24,71.67,141.48,81.65-5.2,9-128.69-74.66-131.86-69.17-5.67,9.81,134.31,67.86,130.13,75.09-3.88,6.72-133.81-83.42-136.9-78.08-2.72,4.71,134.69,66.22,129.7,74.85-2.39,4.14-121.65-79.18-126.22-71.27-3.27,5.66,133.43,66.11,128.71,74.28-3.41,5.9-131.67-79.14-136-71.59-3.23,5.58,141.36,67.68,135.34,78.1-3.88,6.72-122.63-78.37-126.5-71.67-4.34,7.52,139.26,70.82,135.13,78-3.88,6.72-132.3-82.11-136-75.78-6,10.44,129.79,62.35,124.35,71.76-3.6,6.23-119.61-70.6-123-64.77-3.72,6.44,136.91,65,130.84,75.51-2.89,5-139.54-87.32-144.19-79.27-3.45,6,139.55,73.49,136.49,78.77-2.8,4.85-125.15-78.28-128.59-72.32-2.77,4.8,147.63,75.48,143.42,82.77-3.81,6.6-140.68-88.82-145.46-80.53-4,6.93,142.26,75.27,139.3,80.39-4.27,7.4-128.41-76.38-131.07-71.78-5.06,8.75,131.9,67.23,128,73.9-4.45,7.7-139.21-83.93-141.94-79.21C280.8,79.22,430.81,145,425.6,154,421,162,297.25,74.57,294.5,79.33c-5,8.67,142.94,70.94,137.94,79.6-4.74,8.21-142.82-91.14-147.32-83.35-5.55,9.61,139.93,72.57,136.39,78.71-4.63,8-124.22-78.07-128.49-70.68-3.82,6.61,141.78,71.9,137.48,79.34-3.67,6.35-136.58-84-141.05-76.28-4.07,7,148.19,77.57,144.74,83.53C431,175.72,288.46,84,285.11,89.84c-5.88,10.17,144.36,75,140.77,81.24-2.71,4.69-130.94-75.34-133.21-71.41-3.39,5.87,146.07,77.89,143.29,82.69-3.12,5.41-144.43-88.27-149-80.28-4.37,7.57,139.51,73.55,136.49,78.77-3.32,5.75-135.58-78.59-138.07-74.28-3.75,6.49,151.87,75,146.37,84.47-5.23,9.06-132.17-83-135.4-77.38-5.42,9.39,146.2,70.42,140.16,80.88-4.61,8-144.15-94.53-150-84.39-3.93,6.8,146.45,77.38,143.36,82.73-3.35,5.79-134.56-84.59-139.33-76.34-5,8.73,146.77,73.78,142,82-3.66,6.33-134.82-81.19-138.93-74.07-2.8,4.84,136.6,64.87,130.55,75.34-3.89,6.74-134.8-77.89-137.73-72.82-4.3,7.44,137.8,70.16,133.74,77.18-3.78,6.55-129-83.64-133-76.7-5.29,9.17,137.09,71.94,134,77.32-2.69,4.66-122-73-124.81-68.15-6,10.41,131.93,62.91,126.2,72.83-2.86,4.95-122.8-76.57-127.68-68.13s142.72,75.93,139.93,80.75c-3.38,5.85-139-84.65-143.18-77.4-5.43,9.4,141.53,69.91,136.43,78.73-3.07,5.32-137.21-86.12-141-79.47C281.71,153,432.28,215.82,427.1,224.8,424,230.08,291.36,144.21,288,150c-4.18,7.24,139.61,72.83,136.26,78.64-4.95,8.57-135.27-82.05-139.15-75.33-5.72,9.9,150.63,80.57,147.87,85.34-3.65,6.32-142.25-85.31-145.75-79.25-3.83,6.63,138.22,68.28,133.24,76.89-3,5.26-132.11-87.06-137.43-77.86-3.7,6.4,156.58,77.25,150.9,87.08-3.58,6.19-143.79-87-146.68-82-4.74,8.21,149.85,76.64,145.58,84-3,5.15-145.5-93.89-150-86.17-4.61,8,140.71,73.69,137.46,79.33C417.93,244.91,293,163.27,290,168.4c-3.86,6.68,142,75.25,139.13,80.29C423.3,258.77,286,160.33,282.75,166c-4.71,8.16,148.89,77.35,145.18,83.78-2.59,4.48-136.35-79.07-139.42-73.76-4.25,7.36,140.81,69.84,135.87,78.41-3,5.13-126.1-79.61-129.09-74.44-3.48,6,135.45,70.22,132,76.18-5.06,8.77-124.18-82.41-128.9-74.23-3.87,6.7,135.3,69.51,131.58,75.93-4.28,7.41-138-91.18-143.18-82.22-3.85,6.66,144.94,76,141.64,81.74-4.89,8.46-139.51-83.26-142-78.94-2.86,5,138.73,72,135.23,78-2.84,4.92-123.29-77.67-127.67-70.09-3.93,6.81,139.63,73.85,136.71,78.9-5,8.74-138.48-86.23-141.77-80.55-5.09,8.8,139.48,66.83,133.56,77.08-3.16,5.47-123.43-74.07-127.35-67.28s128,67.5,125.28,72.3c-2.24,3.87-121.07-75.5-125-68.75s140.43,67.79,134.69,77.73c-3.9,6.75-133.79-82.6-138.28-74.83-5.71,9.88,137.83,68.16,132.9,76.7-2.59,4.49-126-77.9-128.88-73-5.49,9.5,134.31,67.45,130,75-3.28,5.68-129.6-82.78-134.31-74.63-3.35,5.8,138,66.32,132.26,76.33-4,6.9-134.76-80.74-138.13-74.9-2.93,5.07,140.19,71.12,136,78.46C419.26,289,292.83,211,289.92,216c-5.47,9.47,139.32,68.35,134.1,77.39-3,5.26-125.77-75.25-128.25-71-4.2,7.27,134.11,63.74,128.19,74-4.79,8.28-134.06-83.59-138.95-75.12-3.25,5.62,153.23,75.1,147.46,85.1-4.62,8-130.88-80.07-135-72.89-4,7,142.6,70.23,137.37,79.28-4.25,7.37-145.51-93.94-150.08-86-3.47,6,153,77.19,148.15,85.5-3.58,6.19-141.64-84.63-145.28-78.32-5.1,8.83,148.51,78.22,145.27,83.83-2.54,4.4-129.81-81.54-135-72.55-6,10.32,132.08,69.93,129.35,74.65-4.9,8.49-128.09-79.78-131.24-74.33-3.51,6.07,134.64,65.88,129.52,74.74-4.34,7.52-132.84-84.8-137.93-76-2.95,5.1,140.49,73.46,137.19,79.17-4.47,7.74-130.34-81.17-134-74.75-3.17,5.49,137.51,72.66,134.61,77.68-4.61,8-125.57-79.24-129-73.28-5.55,9.61,134.46,68,130.33,75.21-3.86,6.69-131.34-75.71-134.25-70.67s143.68,70.5,138.3,79.81c-2.78,4.81-128.61-77.78-133-70.19-2.79,4.83,137.8,69.4,133.41,77-2.68,4.64-139.94-84.71-143.72-78.18-5.22,9,150.59,78.19,146.82,84.73-2.88,5-146.87-92.39-151.23-84.84-5.31,9.2,156.16,76.18,150.12,86.64-3.13,5.42-136-87.68-140.89-79.22s145.46,69.86,139.36,80.42c-5.24,9.07-132-78-134.94-72.87-3.15,5.45,127.17,65,123.55,71.3-2.83,4.91-123-72.8-125.54-68.44C289,293.54,426.43,348.61,421.57,357c-2.48,4.29-135.38-78.84-137.76-74.72C279.51,289.75,424,354.22,420.12,361c-4.88,8.46-130.69-82-135.41-73.84-5.87,10.17,150.15,77.05,146,84.25-3.45,6-137.65-87.51-142.19-79.67-3.71,6.42,145.13,73.78,140.81,81.26S300,287.83,295.21,296.07c-3.72,6.44,142,71.35,137.41,79.3-2.94,5.09-146.33-87.49-149.46-82.07-4.81,8.33,154,77.88,149.25,86.13-3.32,5.74-133.7-81.16-136.62-76.1-4.35,7.54,135.09,64.06,129.07,74.48-2.71,4.69-132.27-82.14-136.76-74.36-3.81,6.6,148,76.41,144.07,83.14-2.45,4.24-134.47-83.48-137.6-78.07-4.22,7.3,133.4,66.93,129,74.47-5.08,8.79-134.45-85-138.21-78.54-4,6.93,150.86,80,147.8,85.3-3.51,6.08-139.76-91.39-144.52-83.15-5.38,9.32,141.65,71.76,137.32,79.25-2.26,3.92-124.62-75.24-128-69.47-5,8.67,126.16,65.62,123,71s-133-85.94-137.56-78.05c-3.72,6.45,150.81,80.1,147.81,85.3S296.42,313.74,292.81,320c-4,6.92,143,74.9,139.73,80.64-5,8.57-131.36-74.85-133.82-70.58-3.83,6.63,133,64.93,127.91,73.81-3.49,6-129.12-84.4-133.75-76.38-4.32,7.48,146.84,72.37,141.48,81.65-4,7-138-90.18-143.43-80.73C285,338.64,429.1,395.88,423.79,405.07c-2.36,4.09-126.17-76.31-128.43-72.41-3.75,6.49,139.8,73,136.47,78.76-5.66,9.8-139.32-86.37-143.19-79.68C285,338,434.41,401.82,428.33,412.35c-3.72,6.45-142-81.16-144.56-76.75-3.31,5.73,151.82,74.27,146,84.28C425.35,427.6,294.2,335.61,289,344.54c-5.5,9.52,147.83,77.76,144.56,83.42-3.55,6.14-135.76-87.59-140.14-80-3.58,6.2,131.38,68.06,128,73.88-4.16,7.21-124.09-81.39-128.55-73.67-4.68,8.1,142.89,70.12,137.55,79.38-2.93,5.08-141.2-92.1-146.62-82.71-3.66,6.34,148.3,76.79,144.49,83.38-5.68,9.83-139.89-82.93-143.22-77.16-4.57,7.92,150,73.28,144.21,83.22-4,7-140.52-90.24-145.34-81.9-2.92,5.06,149,76.55,144.89,83.61-2.44,4.22-138.06-84.83-141.13-79.52-2.7,4.67,148.38,75.24,143.88,83s-131.36-76.15-133.86-71.82c-3.95,6.84,139.37,70.9,135.25,78-5.09,8.81-132.2-81.42-137.22-72.71s136.89,67,131.68,76c-4.37,7.56-127.65-75.53-130.42-70.73-4.9,8.49,130.33,68.86,127.58,73.62-4.35,7.54-131.31-83-135.6-75.56s138.61,68.76,133.75,77.18c-4.36,7.55-132.51-80.91-136-74.81-3.25,5.62,148.56,75.34,144.06,83.13-2.69,4.65-136-88.14-141.28-79s145,77.31,142.26,82.1c-3.23,5.6-128.75-84.46-134-75.32-4.77,8.26,135.7,71.85,132.9,76.7-4.39,7.6-129.41-83.65-133.7-76.22-4.83,8.37,134.36,64.17,128.57,74.2C419.92,474,288.27,376.71,283,385.77s151.6,74.91,146.15,84.34C424.69,477.9,294.05,388.5,289.74,396c-5.72,9.91,137.36,68.76,132.81,76.64-3.16,5.48-130.69-79.38-134.2-73.3-3.66,6.33,139.7,70.29,135.23,78-5.26,9.1-127.42-82.39-131.63-75.09-3.59,6.21,134.51,67,129.93,75-4.95,8.56-127.71-74.24-130.95-68.64-4,7,136,66.29,130.7,75.42-4.32,7.49-123.83-76.11-127.35-70-3.3,5.71,139.67,67.17,133.85,77.24-3.69,6.4-130.35-79.1-135-71.13-3.82,6.61,139.13,67.5,133.59,77.09-4.77,8.26-126.93-73.05-129.65-68.35-5.25,9.09,126.4,66.58,123.65,71.35-3.95,6.83-119.79-74.08-123.86-67-4.41,7.64,125.7,62.21,121.22,70-5.13,8.88-128.49-74.71-131.78-69-2.2,3.81,114.13,56,109.84,63.39-3.72,6.44-97-60.79-99.11-57.08-4.85,8.4,113.57,57.45,110.07,63.52-4.12,7.13-105.66-60.76-108.07-56.6-2,3.46,88.72,41.9,84.7,48.88-1.73,3-91.8-56.14-93.51-53.17-3.67,6.35,109.1,56.6,106.34,61.37C394,509,291.71,445.88,289.81,449.17c-2.43,4.21,92.76,44.34,88.78,51.23-2.54,4.4-78.11-41.32-79.66-38.64-3.57,6.18,66.22,30.58,62.92,36.31-2.67,4.62-69.79-44.68-71.94-40.95-1.85,3.2,82.9,41.43,80.12,46.24-1.44,2.49-80.22-47-83.38-41.58-2.27,3.93,67.7,35.48,66.15,38.17-1,1.74-52.23-33.07-54.39-29.34-1.76,3.05,58.91,28.75,56.64,32.68-1.69,2.92-66-40.85-68.39-36.64-1.53,2.65,60,28.81,57.52,33.19-1.55,2.69-54-33.74-55.85-30.61s55.37,29.13,54.15,31.25c-1.94,3.35-52-33.63-53.64-30.77-2.6,4.51,53.4,27.22,51.84,29.92-1.65,2.85-43.8-26.83-45.1-24.59-2.56,4.43,45.23,21,43,24.82-1.33,2.29-41.74-25.81-43.32-23.07-1.9,3.3,35.53,17.32,34.15,19.71-1.11,1.92-39-25.59-40.51-23-2.15,3.73,57.18,29.24,55.55,32.06-1.92,3.32-50-30.4-52-26.93-1.58,2.73,44.56,21.65,42.8,24.7-1.49,2.58-40.19-20.45-41.6-18s36.6,17.47,35,20.21c-1.11,1.92-39.22-21.42-40.27-19.61-.68,1.18,27.09,14,26.38,15.22-.34.6-19.4-7.27-20-6.24-.75,1.3,17,7.6,16,9.25-.8,1.38-22.18-8.35-22.64-7.55-.33.57.76-.71.26.15-.13.22-5.59-.22-5.74,0-.32.55,15.9,8.46,15.59,9-.44.77-15-5.46-15.59-4.48-.13.22,8,4.15,7.78,4.49s-7.48-4.87-7.78-4.35c-.11.18,7.62,4.2,7.53,4.35-.17.3-7.27-2.4-7.53-2,0,0,3.41,1.91,3.39,2" fill="none" stroke="#999" stroke-linecap="round" stroke-linejoin="round" stroke-width="1.27"/><path d="M79.45,6.33C78.17,10.41,230.9.41,228.62,7c1.81,0-.29,491,.4,504.82-.49-12.91-153.52-2.44-150.13-11.64C77.93,508,75.66,8.32,79.45,6.33Z" fill="none" stroke="#666" stroke-width="3.18"/><path d="M284.67,5.1C282.41-4.65,435.35,6.9,435.83,15.74c-.49-2.73,1,486.14-2.82,495.71,3-12.4-150.57-1.38-147-3.23C282.11,505.32,283.28,14.23,284.67,5.1Z" fill="none" stroke="#666" stroke-width="3.18"/><path d="M75.95,9.78c2.58.61,153.57-3.76,155.78,0-2.78,1.62-5.59,488.59-.94,499.22-5.55-2.77-151.25-5.21-151.14-2.8C79.41,506.31,77.53,7.05,75.95,9.78Z" fill="none" stroke="#4c4c4c" stroke-width="2.38"/><path d="M286.05.88c-3.18,4.54,149.79,6.78,147.25,6.78,2.63,2.37,3.38,491.74,3.23,495.12-2.51-2.41-149.19,2.11-151.28,7.6C287.51,500.93,281.74,10.3,286.05.88Z" fill="none" stroke="#4c4c4c" stroke-width="2.38"/></svg>