<svg xmlns="http://www.w3.org/2000/svg" xmlns:xlink="http://www.w3.org/1999/xlink" width="38" height="38" viewBox="0 0 38 38">
  <defs>
    <filter id="Polygon_3" x="4" y="6" width="31" height="31" filterUnits="userSpaceOnUse">
      <feOffset dy="2" input="SourceAlpha"/>
      <feGaussianBlur stdDeviation="1" result="blur"/>
      <feFlood flood-opacity="0.369"/>
      <feComposite operator="in" in2="blur"/>
      <feComposite in="SourceGraphic"/>
    </filter>
    <clipPath id="clip-play">
      <rect width="38" height="38"/>
    </clipPath>
  </defs>
  <g id="play" clip-path="url(#clip-play)">
    <g transform="matrix(1, 0, 0, 1, 0, 0)" filter="url(#Polygon_3)">
      <g id="Polygon_3-2" data-name="Polygon 3" transform="translate(32 7) rotate(90)" fill="#f26430">
        <path d="M 23.38197135925293 24.50000190734863 L 1.618030905723572 24.50000190734863 C 1.366430997848511 24.50000190734863 1.236781001091003 24.33417320251465 1.192710995674133 24.26287269592285 C 1.148651003837585 24.19157218933105 1.058300971984863 24.00144195556641 1.170820951461792 23.77638244628906 L 12.0527811050415 2.012462854385376 C 12.13932132720947 1.839392781257629 12.3065013885498 1.73606276512146 12.50000095367432 1.73606276512146 C 12.69349098205566 1.73606276512146 12.860671043396 1.839392781257629 12.94721126556396 2.012452840805054 L 23.82918167114258 23.77639198303223 C 23.94170188903809 24.00144195556641 23.85135078430176 24.19157218933105 23.80729103088379 24.26287269592285 C 23.76322174072266 24.33417320251465 23.63357162475586 24.50000190734863 23.38197135925293 24.50000190734863 Z" stroke="none"/>
        <path d="M 12.49999141693115 2.236053466796875 L 12.50000095367432 2.236063003540039 L 1.618030548095703 24.00000381469727 L 23.38196182250977 23.99999237060547 L 12.49999141693115 2.236053466796875 M 12.49999618530273 1.236064910888672 C 12.85507869720459 1.236064910888672 13.21016120910645 1.420328140258789 13.3944206237793 1.788852691650391 L 24.27639007568359 23.55278205871582 C 24.60884094238281 24.21768188476562 24.12535095214844 25.00000190734863 23.38196182250977 25.00000190734863 L 1.618030548095703 25.00000190734863 C 0.8746509552001953 25.00000190734863 0.3911609649658203 24.21768188476562 0.7236003875732422 23.55278205871582 L 11.60557079315186 1.788852691650391 C 11.78983116149902 1.420328140258789 12.14491367340088 1.236064910888672 12.49999618530273 1.236064910888672 Z" stroke="none" fill="#e16031"/>
      </g>
    </g>
  </g>
</svg>
