<svg id="Layer_1" data-name="Layer 1" xmlns="http://www.w3.org/2000/svg" viewBox="0 0 512 512"><title>play-handdrawn</title><path d="M46.37,1c-.2.35,14.71,7.58,14.32,8.26-.15.26-8-1.94-8.21-1.58-3.55,6.14,96.83,46.41,92.75,53.48-2.42,4.19-81.92-49.47-84-45.86C54,27.82,232.52,105,228.59,111.82,222.7,122,63.38,7.27,58.39,15.9c-9.06,15.68,256.73,128.82,248.4,143.23C301.51,168.28,64.22,10.94,58.24,21.28c-10.71,18.54,421,204.29,404.29,233.13C452.57,271.64,68.6,13.65,59.94,28.64,46.43,52,464.28,237.82,453.88,255.8,441.75,276.78,67.52,17.28,60.16,30,53,42.4,465.73,233.29,452.48,256.22S70.24,20.91,61.62,35.83C45.38,63.92,450.82,236.44,440.49,254.3c-8,13.82-372.12-238.56-383-219.68C42.83,59.92,455.15,246.86,447.74,259.67,435.08,281.56,62.48,17.7,52.91,34.25,39.82,56.9,446.89,233,434.58,254.33c-7,12.19-379.41-230.72-386.89-217.78C40.56,48.88,448.58,243.32,438,261.62,430,275.45,63.62,11.34,48.56,37.38c-14,24.29,391.79,202.37,381.58,220-10.43,18-359.48-235-373.09-211.49C48.87,60.09,439.92,240.19,428.43,260.07,420.18,274.35,69.16,19.75,54.63,44.89c-8.68,15,391.92,207.54,383.92,221.38C423.31,292.63,67.94,26.35,54.77,49.13c-11.68,20.2,380.09,194.63,369.45,213C415.28,277.63,56.63,38.93,48.52,53,40.13,67.46,423.43,251.39,415.73,264.7,407.73,278.54,65.66,38.18,53.62,59c-7.74,13.38,385.2,188.72,370.72,213.77C411.16,295.56,56.35,41.94,47,58.05c-12,20.74,379.25,185,364.63,210.26C402.17,284.74,67.18,54.55,58.2,70.09,49.47,85.18,429.07,261.6,419.38,278.36,412.27,290.66,61.5,52.66,52.76,67.78,40.21,89.49,425.69,251.38,412.06,275,402.23,292,63.79,54.58,54.83,70.07,48,81.88,423,266.23,416,278.32,401.83,302.82,72.92,50.45,59.4,73.83,52.55,85.69,422.26,249.89,407.88,274.77c-6.38,11-344.4-215.26-353.62-199.31-13,22.44,364.19,187,354.2,204.24C398,297.8,68.77,74.63,62,86.28,54.62,99.1,409.43,258.17,397.1,279.5,389.9,292,61.22,67.58,52.29,83c-13,22.5,348.39,183.9,341,196.64C382.48,298.41,57.64,76.47,50.63,88.6,44.2,99.72,395.39,270.37,388,283.14,381.5,294.4,61.35,68.84,48.11,91.74,38.13,109,398,274.16,389.59,288.65,381.37,302.88,62.49,90.85,55.76,102.5c-13.88,24,330.19,168.84,320.84,185C366.09,305.68,53.16,92.32,47.41,102.26,34.54,124.53,385.27,269.54,373.33,290.19,365.35,304,56,95.83,48.86,108.2,39.74,124,383,286.27,376.7,297.24,365.5,316.61,56.29,97.7,47.24,113.35,39.8,126.23,390,284.64,378.58,304.41c-6.78,11.74-314.46-194-321-182.69C45.54,142.5,382.87,288.14,373.69,304c-13,22.55-317.79-202-326.46-187-9.48,16.4,322.06,167.08,314,181.05C353.75,311,57.64,107,48.14,123.47c-11.43,19.77,321.72,170.07,315,181.65C356.33,316.94,62.8,121,55.52,133.63c-8.18,14.15,317.57,164.6,309.54,178.49C356.4,327.11,70.88,121.29,60.64,139c-9.73,16.82,308.83,161.35,301.58,173.9C356.81,322.27,67.58,118.72,55.7,139.26c-9.65,16.69,307.5,148.26,294.9,170-5.09,8.8-281.82-178.93-292-161.35C52,159.47,356.89,296.88,346.89,314.18c-11,19-285.4-175.15-291.28-165-5.38,9.32,293.37,144.44,282.65,163C329.49,327.34,62,142.49,54.79,155.05,46.32,169.7,348,304.57,339.5,319.23,331.56,333,70.2,147.65,61,163.57,50.33,182,341.87,306.29,333.53,320.72c-6.8,11.76-263.85-167.94-271.91-154-9.28,16.05,279.23,143.75,271.75,156.7C324.36,339,70.2,150.36,60,168.08,49,187,333.27,308.8,326,321.45,316.83,337.24,59.42,153.9,52.49,165.9,44.2,180.24,335,312.8,328,324.79c-9,15.53-256.81-164.62-266.69-147.54C55.76,186.94,322.85,316,317.62,325c-8.55,14.8-263.28-160.2-269.7-149.11C38.06,193,329.76,323.63,323.35,334.73c-4.86,8.41-263.06-168-272.53-151.57C42.07,198.29,320.44,323.72,314,334.91,306.34,348.12,63.3,171.06,54.28,186.67c-10.8,18.68,256.94,134.81,251.15,144.82-7,12.19-235.95-145.83-242.66-134.22-5.19,9,261.37,128.79,251.86,145.23-9.36,16.19-249.84-156-256.24-145-8.12,14,249.64,132.05,244.48,141C294.23,353.47,64.83,185,56.78,198.9,50.9,209.06,313,333.81,307.46,343.46,300.13,356.15,57.67,187.63,52.1,197.26,45.77,208.21,319.49,327.6,309.15,345.49c-8.44,14.61-241.71-158.3-251.52-141.32-9.53,16.49,250,122.71,240.71,138.8-8.48,14.68-236.55-150-245-135.45C48.6,215.76,302.78,330.7,293.83,346.17c-4.67,8.07-236.41-146.4-241.44-137.7-10.08,17.43,243.43,126.1,237.24,136.8-5.85,10.11-221.79-142-228.87-129.75-6.25,10.81,247.47,121.13,238.12,137.31-9.7,16.78-241-146.37-247.2-135.72-6.54,11.32,240.13,127.17,235.23,135.64C279.09,366.28,55,208.15,49.27,218c-5.22,9,245.85,129.37,240.48,138.67-8.75,15.13-222-140.18-227.29-131-4.38,7.58,233.23,122.15,227.88,131.4C285.76,365,64.4,219,58.73,228.83,52,240.44,293.54,342.7,284.2,358.85c-5.54,9.58-230.89-143.8-236.34-134.36-6,10.45,235.78,124.66,230.88,133.14-6.47,11.2-226-142.2-231.37-132.83C38,241,291.54,344.19,282.26,360.24c-4,7-218.14-141.58-225.47-128.91C48.32,246,273.92,346.32,269.49,354c-4.8,8.3-201.94-120.73-206.87-112.2-9.19,15.9,215.78,104.49,207.14,119.44C262.27,374.18,60,232.11,54.29,241.92c-3.94,6.82,225.52,116.26,219.54,126.6-5,8.73-207.26-133.31-214.78-120.29-7,12.06,211.35,111.32,206.77,119.23s-211.25-130-215-123.53c-4.35,7.52,211.7,106.69,205,118.23C251.5,369.68,54,241.81,49.38,249.73c-6.78,11.73,217.41,110.81,211.1,121.73C255.33,380.37,63.21,251.12,58.65,259c-6,10.37,200.64,103.46,195.33,112.63-4.29,7.43-195.24-118.19-199.8-110.3-4,7,205.39,99.1,197,113.6C246.31,383.4,52.78,253.59,47.94,262,41.51,273.09,254.2,366.85,248.11,377.39,242.33,387.39,57,256.76,50.94,267.28c-7.78,13.46,190.22,101.41,186.63,107.62-6.1,10.55-181.48-107.22-184.69-101.68-4,6.89,194.7,94.31,186.91,107.78C233.93,391.15,58.75,270.32,53,280.24c-6.37,11,181.36,93.27,176.46,101.75-5.54,9.59-167.89-111.32-174.81-99.34-4.78,8.28,182.26,95.68,178.17,102.74-6.2,10.73-175.49-113.45-181.47-103.11C45.74,292,242.72,383.62,238.82,390.38c-7.19,12.43-185-107.53-188.44-101.54C43.87,300.1,236.82,387,232.78,394,229.44,399.8,57.59,288.33,54.4,293.86c-3.71,6.41,169.27,83.33,163.08,94-3.44,6-156.64-94.69-161.55-86.19C49.79,312.32,221,389,217.56,394.91c-3.66,6.33-152.77-93.84-155.71-88.75C56,316.35,213.26,383,208.71,390.85,206.07,395.41,67,306,62.51,313.67c-3.37,5.84,152.85,75.84,147.51,85.06C204.36,408.52,59.48,301.47,54,311c-5.8,10,155.16,81.77,151.82,87.55C200.3,408,53.12,300.14,47.45,309.94c-3.55,6.14,168.11,82.36,161.79,93.29-5.23,9-149.34-99.2-155.6-88.36-3.81,6.59,160.54,81.35,155.68,89.77-5.85,10.12-143.93-91.48-149.11-82.51-4.7,8.12,138.59,70.88,134.67,77.65-4.33,7.49-143.05-93.29-148.31-84.18-3.6,6.23,149.05,78.66,145.89,84.12-2.37,4.1-126.11-77.18-129.62-71.11-3.26,5.65,139,66,132.86,76.61C191.48,412.51,60,324.61,57.37,329.17c-4.28,7.4,137.85,68.76,133.2,76.81-3,5.17-132.25-77-135.42-71.47-2.77,4.8,135.76,66,130.42,75.2-5,8.64-133.07-84.15-137.58-76.34-4,6.95,138.37,68.59,133.51,77-3.69,6.39-120.43-76-123.9-70-3.81,6.6,127,64.92,123.37,71.14-4,6.87-118.74-72.23-122.54-65.66-5.15,8.92,118,62.18,115.44,66.57-3.46,6-112.77-66.82-115.72-61.71-4.73,8.19,126.69,61.52,121.69,70.17C176.67,426.33,53,339.2,48,347.86c-2.59,4.48,134.94,72.13,132.48,76.39-3.18,5.5-119.26-71.69-123.23-64.82-2.58,4.47,118.5,60.47,115.09,66.36-2.16,3.73-122.69-71.3-125.05-67.21-3.71,6.43,120,62.49,117.07,67.51C161.92,430.3,52.29,354.82,49.28,360c-4,7,121.59,62.35,118.23,68.17-4,6.95-117.26-68.87-120.83-62.71C43.83,370.44,157.51,419,153,426.82c-2.44,4.22-87.2-51.9-90.3-46.53-2.39,4.14,97.76,48.79,94.47,54.47-1.82,3.15-99.87-54.61-101.78-51.31-2.11,3.66,100.77,51.76,98,56.52-3.51,6.07-97.52-59-101-53-2,3.4,88.66,44.15,85.64,49.38-3.18,5.5-83.6-49.73-86.33-45-2,3.49,93.25,46.28,90,51.9s-85.58-55.79-88.52-50.7c-3.5,6.05,81,42,79,45.54-2.17,3.76-80.61-48.27-82.53-44.95-2.38,4.12,94.22,49.34,92.06,53.08-3,5.24-91.78-54.63-95.07-48.94-2.69,4.65,87,43.54,84.15,48.52-1.66,2.88-72.86-40.28-74.8-36.93s69.36,36.47,67.83,39.12c-1.94,3.36-71.66-41.72-74.48-36.84-2.62,4.54,77.42,38.65,74.82,43.15-2.18,3.78-69.93-37.59-71.86-34.25-1.69,2.92,63,30.17,60.31,34.78-1.4,2.42-52.43-31.15-54.07-28.31-2.1,3.64,50.79,25.22,49,28.27-1.1,1.91-49.88-26.44-51-24.42-1.78,3.08,62.21,29.77,59.56,34.35-1.05,1.82-57.39-30.62-59.39-27.16-2.18,3.77,51.87,26.72,50.48,29.11-1,1.75-48.07-24.47-49.6-21.83-1.77,3.07,42.87,20.78,41.17,23.74-1.44,2.5-47.17-28.09-48.21-26.29-2.09,3.61,51.94,26.4,50.4,29.06-1.73,3-49.19-26.61-50.35-24.59-1,1.65,40.32,20.94,39.31,22.67-1.09,1.89-34.64-19.4-36-17.13C52.09,455.53,95.68,473,94.21,475.6c-.88,1.52-31.94-13.47-32.48-12.55-1,1.69,25.1,11.24,23.7,13.66-1,1.68-34.48-17.29-35.72-15.14-1.48,2.56,32.26,15.12,30.75,17.73-1,1.78-26.47-15.4-27.23-14.1-.89,1.54,33.57,16.73,32.43,18.7-1,1.66-37.68-24.09-38.78-22.19-.85,1.48,35.39,18.91,34.74,20s-18.45-11-19-10.11c-.75,1.3,15.84,6.75,14.81,8.54S49.37,464,48.7,465.21C47.59,467.13,75,478.06,74,479.78c-.59,1-17.87-8.13-18.53-7-.91,1.57,15.67,6.72,14.66,8.46-.39.67-18.76-11.86-19.31-10.91S69.62,479.7,69,480.82c-.23.39-8.12-5-8.34-4.62-.77,1.33,20,9.85,19.26,11.11-.42.72-23.39-7.9-24-6.78-.87,1.51,9.67,3.8,8.9,5.13-.43.75-13.75-4.56-14-4.08-.6,1,12.78,5.85,12.12,7-.14.25-6.8-1.33-7-1-.54.93,7.4,3.41,7,4.05-.26.45-11.67-.51-11.86-.17-.51.88,5.43,2.32,5.08,2.93-.24.42-9.44-4-9.74-3.48-.4.69,15,8.08,14.72,8.49s-11.34-2.62-11.69-2c-.23.4,5.24,2.45,5,2.88s-7.81-2.67-8-2.28,8.91,4.76,8.75,5-8.46.65-8.75,1.17c0,0,3.52,2,3.51,2s-3.45-1.66-3.51-1.54,3.12,1.77,3.11,1.79" fill="none" stroke="#999" stroke-linecap="round" stroke-linejoin="round" stroke-width="1.29"/><path d="M51.28,13.16C47.16,2.57,466.12,250,460.43,245.3c3.36,2.57-414.11,261.91-408.86,248.43C48.66,499.45,48.73,7.11,51.28,13.16Z" fill="none" stroke="#666" stroke-width="3.22"/><path d="M40.41,1c1.65-.66,423.74,248.7,431.13,248.91-7.19,8.48-414.65,250.46-430.26,261.32C49.41,499.73,47.57,6.07,40.41,1Z" fill="none" stroke="#4c4c4c" stroke-width="2.42"/></svg>