<svg id="Layer_1" data-name="Layer 1" xmlns="http://www.w3.org/2000/svg" viewBox="0 0 512 512"><title>volume-handdrawn</title><path d="M150.73,365.14c-6,10.42,145.48,73.15,140.78,81.3-3.09,5.35-120.75-73-124.72-66.1-4.34,7.52,134.73,64.69,129.05,74.53-2.91,5-122.38-80.35-127.19-72-2.64,4.57,143.85,70,138.19,79.81C304.34,467,176,379.79,172.29,386.18c-4.74,8.21,124.79,61.56,120.24,69.44-4.67,8.09-113.46-71.5-117.2-65s127.48,65.56,124,71.61c-4,6.95-102-63.45-105.85-56.72-3.29,5.69,103.68,50.58,99.65,57.55-2,3.42-103-66.19-106.44-60.29-2.27,3.93,125.55,61.26,120.68,69.69-2.11,3.65-107.27-63.23-110.63-57.41-2.7,4.68,107.78,57.74,105.83,61.12-3,5.25-86.61-56.7-90.12-50.61-4.25,7.36,93.49,47.61,90.73,52.4s-94.22-61.36-97.26-56.1,101.37,52.29,98.66,57c-3,5.25-80.25-44.15-81.8-41.47-2.65,4.6,77.92,36.72,74.33,42.93-1.27,2.2-60-34.67-62-31.3-1.74,3,63.23,29.73,60.29,34.82-1.69,2.93-48.59-25.1-50.16-22.38-1.7,2.95,57.67,28.85,55.74,32.19s-47.81-24.5-49-22.43c-1.51,2.62,42,19.57,40,23.08-1.38,2.39-35.94-23-37.17-20.88-1.12,1.93,43.9,21,42,24.26-1.43,2.49-46.19-28.52-47.27-26.64-1,1.72,50,24.47,48.07,27.76-1,1.66-38.73-22.09-39.45-20.83-1.46,2.54,30,13.21,28.21,16.29-.85,1.47-24.55-14.29-25.39-12.84-1.53,2.66,30.11,13.87,28.59,16.51-.31.54-9.23.82-9.53,1.34-1,1.68,14.44,7.11,13.9,8-.25.44-13.34-2.71-13.69-2.1-.14.24,8.62,4.64,8.48,4.9s-5.58-2.27-5.76-2c0,.05,3.91,2.17,3.87,2.24" fill="none" stroke="#999" stroke-linecap="round" stroke-linejoin="round" stroke-width="1.23"/><path d="M291.77,28.22c-.08.14,7,3.72,6.86,4s-4,1.77-4.16,2c-.74,1.28,1.85-.16,1.32.76,0,.08,1.68,1.81,1.63,1.88-.47.82,4.55,1,3.85,2.22-.5.87-15.31-3.12-15.82-2.23-.69,1.2,22.33,11.7,21.82,12.6-1,1.65-25.64-11.92-26.48-10.46S294,44.54,293.14,46.1c-.21.37-5.85-3.11-6.08-2.73-.79,1.37,20.9,10.1,20,11.58-.74,1.28-27.91-18.48-29-16.67s18.68,9,17.9,10.34c-.18.31-8.33-.65-8.63-.14-1.22,2.11,17.25,7.06,16,9.24-.55.95-21.09-6-21.42-5.37-.71,1.24,12.81,4.42,11.52,6.65-.62,1.07-19.5-9.22-20.22-8-1.16,2,27.17,13.05,26,15-1,1.65-33.54-16-34.75-14-.79,1.36,34.73,16.82,33.33,19.25-.9,1.56-33.83-16.76-34.71-15.24-1.56,2.71,35.62,18.1,34.55,20-.63,1.08-29.92-16-31-14.13s31.1,13.91,29.34,16.95c-1.17,2-33.25-20.16-34.12-18.65C260.88,62.11,296,75.3,294,78.73,293,80.6,268,62.27,267.11,63.81c-1.58,2.74,40.25,19.63,38.69,22.34-1.46,2.53-50.92-28-52.27-25.68-1.51,2.61,48.5,25,47.2,27.26-1.19,2.07-43.54-21.81-44.67-19.84-1,1.71,42.18,21.2,40.82,23.57-.76,1.32-44.22-22.28-45.62-19.84-2,3.5,46.08,22.33,44.23,25.54-1.13,2-43.07-27.41-44.79-24.42-1.49,2.59,43.64,21.71,42.13,24.33s-46.43-23.59-47.55-21.66c-1.93,3.34,52.36,25.07,50.12,28.95-1.62,2.81-42-21.89-43-20-1.94,3.35,48,23.32,46.1,26.62-1.51,2.61-56.4-37.22-58.56-33.47-1.34,2.32,62,29.86,59.41,34.31-2.12,3.67-61.15-33.59-63.41-29.66-1.77,3.07,60.28,30.73,58.51,33.79-.85,1.48-46.75-26.28-48.29-23.62-1.35,2.34,50.22,22.55,47.43,27.39C292.3,121.87,241.85,91.87,240,95c-2.25,3.9,65.84,33.14,63.72,36.8-2.5,4.33-74.49-48.07-77.57-42.73-1.79,3.09,72.6,35,69.58,40.19-2.29,4-62.64-37.76-64.1-35.23-2.43,4.21,61.89,32.22,60.37,34.86s-54.81-31-56.88-27.46c-2.54,4.39,64.06,29.66,60.89,35.16-1.32,2.29-69.43-41.32-71.67-37.42-2.93,5.08,78.3,41.69,76.77,44.34s-76.51-44.72-78.27-41.67c-3.17,5.49,82.47,40.32,79.31,45.8-2.32,4-82-49.14-84.69-44.54-1.95,3.37,86,43.46,83.31,48.11-2.18,3.77-77.51-41.39-78.95-38.91-2.24,3.88,88,42.27,84.32,48.7-3.36,5.82-83.59-50.22-86.49-45.2-2,3.39,84.06,41.71,81.1,46.83-3.28,5.69-91.52-53.86-93.84-49.84-3.56,6.18,101.69,54.59,99.9,57.69-3.62,6.28-101.82-58.11-104.27-53.85-3.69,6.4,93.24,47.77,90.61,52.33-1.6,2.78-82.18-49.62-83.83-46.75-4,7,91.44,46.91,88.88,51.33-3.52,6.11-90.94-52.9-92.68-49.87-2.64,4.57,95,47.53,91.86,53-2.33,4-95.67-53.82-97.39-50.84-3.78,6.55,103.77,54.73,101.52,58.63-2,3.5-98.74-61.43-102.42-55.05-2.41,4.18,107.22,51.49,102.7,59.31-2,3.39-99.42-62.93-102.4-57.76-3.78,6.55,110,56.29,106.9,61.73-2.73,4.74-104.17-65.61-107.13-60.48-4.14,7.17,103,52.55,100,57.73-4,6.93-100.07-62.16-103.82-55.67-2.37,4.11,108.16,54.62,104.76,60.5-2.62,4.55-107-71.25-111.16-64.08s115.43,59.5,112.33,64.87-101.52-65.68-105.49-58.79c-3.27,5.66,102.41,52.25,99.43,57.42-3.64,6.3-94-55.69-96.29-51.76-4.3,7.45,103,50.21,99,57.18-2.22,3.85-108.84-68.53-113.14-61.08-4.14,7.17,115.69,58.14,111.94,64.65-3,5.17-100.69-60.51-104-54.85-4,6.89,102.37,51.42,99,57.2-2.71,4.7-104.5-68.09-108.48-61.19-4.81,8.33,119.22,59.14,115,66.42C295.31,216,189.2,144.43,186,150c-2.82,4.88,123.33,60.58,118.72,68.56s-117.36-72-120.23-67.05C181,157.45,304.31,214,301.39,219c-5.1,8.84-125.9-74.27-128.2-70.29-2.83,4.91,127.29,66,124,71.63-3.17,5.5-116-67.7-118.35-63.55-3.66,6.34,117.76,59.93,114.27,66-2.31,4-123.43-72.9-127.11-66.53-2.61,4.52,133.18,64.09,127.63,73.71-3.28,5.68-117.8-70.16-120.5-65.49s124.79,63.09,120.91,69.82c-2.27,3.92-116.59-72.07-120.89-64.62-4.92,8.53,130.07,67.29,126.68,73.16-3.78,6.54-126.83-78.73-131.28-71-4,7,132.39,70.4,129.77,74.94-4,7-141.4-82.81-143.93-78.42-5,8.59,155.52,80.34,151.42,87.45C301.11,264,154.89,163.5,152,168.52c-5.93,10.28,151.71,76.27,146.8,84.78-4.18,7.24-134.77-85.14-139-77.78-4.71,8.16,148.83,76,144.53,83.47-5.9,10.23-149.67-95.38-154.92-86.28-4.41,7.64,147.91,71.94,142.07,82-2.7,4.68-143.47-86.4-148-78.46-4.94,8.55,161.56,83.83,157.46,90.94-4.57,7.92-159.95-95.71-163.65-89.29-4.1,7.1,161.32,77.49,154.53,89.24-3.35,5.8-163-100.42-167-93.57-3.39,5.88,180,87.15,172.73,99.75-6.87,11.91-169-110.53-174.76-100.63-3.36,5.83,185.9,95.49,180.77,104.39-7,12-178.8-108.92-182.9-101.82C115,185,300.79,266.82,295.35,276.24s-169-109.7-175.41-98.66C114,187.84,307.94,277.49,304.19,284c-7,12.21-180.86-117.7-187.26-106.61-4.78,8.28,184.16,95.84,179.61,103.73-6,10.44-190.36-120.45-195.38-111.74C93.3,183,309.68,278.53,304.81,287c-6.69,11.59-192.25-119.56-196.2-112.72C100.84,187.71,299.79,275.85,296,282.45c-6.37,11-186.7-114.58-191.59-106.1C98.8,186,314.74,278.39,306.32,293,300,303.87,98,170.69,94.1,177.37c-8.18,14.18,210.38,110.87,205.78,118.84-5.17,8.95-206.06-129.88-213-117.81C81.9,187,307.2,296.2,303.11,303.29,297.1,313.7,68,158.78,61.7,169.67c-8.23,14.25,241.84,118.84,232.82,134.46C290.29,311.47,69.43,165.06,64.4,173.78,54.79,190.42,304.67,294.92,297,308.14,293,315.17,72.69,167.9,67,177.71c-5.49,9.5,240.36,124.44,234.13,135.22-9,15.57-239.45-150.35-245.38-140.08-9.3,16.11,250.1,129.66,243.71,140.74-8.91,15.45-246-150.25-250.3-142.72-6.85,11.87,255.42,128.87,247.35,142.85C286.58,331,47.64,162.58,41.94,172.47,31.51,190.54,306.83,304,297.55,320.09,288.48,335.82,54,163.59,46.38,176.86c-5.86,10.15,256.85,125.69,247,142.67-8.55,14.81-262-156.8-267-148.15S306,318.72,299.89,329.29C294.52,338.58,22.48,162.92,17,172.39,6.15,191.21,309.75,316.45,298.93,335.2c-8.83,15.3-263.38-164-269.46-153.49C19.82,198.43,311.09,332.62,306,341.41,298.8,353.91,33.3,168.5,26.58,180.16c-7.26,12.57,274.7,144.28,268.48,155.05C285,352.56,30.42,164.14,19.91,182.35,9.29,200.75,306.4,331.67,299.41,343.77,294.2,352.79,33.2,172.26,24.68,187c-5.94,10.29,286.39,140.22,275.49,159.1-6.81,11.79-275.75-175.8-284.58-160.51C4,205.66,306.71,326.6,295,347,288,359,30.14,180.39,22.49,193.65c-6,10.34,278.13,143.22,270.6,156.27S26.42,172.82,16,190.89c-10.53,18.24,289,139.42,277.09,160C288.17,359.42,24.93,171.52,14,190.48,3.65,208.39,312.24,349.37,306.46,359.38,298.87,372.52,30.42,179,20.23,196.62,11,212.55,302.43,337.11,292.7,354,286.11,365.38,23.32,178.34,14.49,193.63,6.74,207.06,307,335.27,295.16,355.72c-7.84,13.59-274.58-172.32-281-161.21C3.9,212.31,305.09,337.89,294.43,356.36c-4.87,8.44-270.07-177.25-281.19-158-10.6,18.37,301,153.54,292.25,168.78C295.6,384.31,18.4,186.36,11.85,197.72,5.08,209.44,305.85,341.5,294.59,361c-6.84,11.85-262.92-166-271.19-151.7C14.58,224.58,312.61,360.8,305.89,372.45,299.06,384.27,26.54,197.22,19.22,209.91c-8.08,14,290.25,154.16,284.42,164.26C293.56,391.63,33.27,201.55,24.52,216.71c-11.17,19.35,284.81,141.1,274.69,158.64C291.45,388.78,26.3,197.93,15.87,216c-7,12.16,291.2,154.78,285.4,164.82C290.18,400,30.55,205.15,22,219.92c-5.72,9.91,296.38,144.67,284.91,164.54-5.25,9.09-280.6-171.52-287-160.36-9.44,16.36,291.18,148.29,282.57,163.19-9,15.54-279.14-179.7-288.61-163.28C6.91,236,313,373.84,303.07,391,293,408.55,29.75,221.73,21.93,235.29c-9.92,17.18,282.75,138,271.78,157-9.88,17.12-263-164.51-270.25-151.9-5.18,9,284.76,137.11,272.92,157.62C286,416,25.19,229.83,19.1,240.39,9.1,257.72,307.93,383.21,297.55,401.2,288.76,416.43,24.3,228.8,17.93,239.84c-11.25,19.49,280.82,145.28,273.51,158C284.26,410.22,21.38,224.25,13,238.84,6.11,250.69,306.67,389,298.23,403.59,287.73,421.79,27.79,236.36,21,248.2c-8.26,14.3,297.26,145.37,285.88,165.1C301.15,423.15,18.4,240.19,13,249.51,2.36,268,304.25,402.67,297.74,413.94,288,430.84,23.62,234.76,13.18,252.85,2.86,270.73,309.52,402.78,300.34,418.69,293.46,430.6,36,243.64,25.15,262.5c-5.4,9.35,288.38,143.2,278.27,160.71C296.68,434.9,30.6,254.06,25.5,262.9,17.18,277.31,306.92,404.77,298,420.26,290.65,433,27.7,246.08,18.1,262.71c-9.83,17,286.32,143.15,276.71,159.8-10.4,18-272.09-166-278.44-155C5.14,287,310.16,412.51,299.48,431c-5.26,9.11-277.35-173.67-284.15-161.87-7.68,13.31,285,150.07,278.71,161C286.22,443.64,16.38,262.62,11.38,271.28-.22,291.39,315.78,426,306.67,441.81c-10.22,17.71-286-176.88-292-166.49-9.74,16.88,285,149,278.29,160.72C282.83,453.54,25,262.12,15.79,278,9.28,289.29,312,422.6,300.54,442.45,293,455.6,28.45,275.47,23.66,283.78,12.48,303.14,298.71,426,291.49,438.45c-7.71,13.36-265.11-166.33-271.14-155.9C9.69,301,308.16,435.71,302.51,445.5,297.57,454.06,30.42,264,19.21,283.37c-8.71,15.09,286.21,145.31,277.56,160.3C285.86,462.57,19.63,265.57,11.15,280.26c-9,15.54,292.06,156,286.58,165.5C289.93,459.27,32.82,278.23,25,291.71,15.62,308,310,430.45,298.79,449.8,293.74,458.56,16.94,278,11,288.23c-3.62,6.27,122,60,117.5,67.86-2.89,5-115.3-67.91-117.86-63.47-4,7,125,63.28,121.16,70-4.31,7.46-112.1-69.08-115-64.06-2.77,4.8,110.86,55.74,107.27,62-1.87,3.24-99.58-62.65-103.27-56.25C18.05,309,116.66,352,113.39,357.67c-3,5.15-88.18-50.32-89.72-47.65C21,314.56,111,350.93,106.89,358.09c-2.09,3.62-86.49-50-88.85-45.86-3.26,5.65,90.52,44.46,87.13,50.32-2.35,4.07-84.65-45.46-86.13-42.91C17.13,323,97.19,358.8,94.6,363.28,92.5,366.92,22,321,20,324.53,18.1,327.81,89.56,357.74,86.55,363c-1.73,3-61.87-36.77-63.37-34.18s63.72,33.2,62.16,35.9c-1.79,3.11-69.16-36.16-70.41-34-2,3.45,59.42,28.76,57,32.93-2.25,3.9-57.4-35.81-58.64-33.66-1.48,2.57,56.27,28.65,54.6,31.53-2,3.47-52.09-28-54-24.65-1.61,2.8,45,22.82,43.62,25.19-1,1.75-33.61-20.47-34.81-18.4-1.84,3.19,24.56,11.6,23.44,13.54-.54.94-20.94-9.77-21.32-9.12-1.32,2.28,15.31,5.17,13.72,7.92-.8,1.38-21.33-9-21.92-7.94-1.14,2,17.25,7.19,16.06,9.27-.15.26-7.05-1.88-7.31-1.44-.86,1.48,15.11,7.26,14.48,8.36-1,1.78-28.26-12.13-28.92-11-.4.69,13.49,6.29,12.84,7.42-.23.39-11.73-5.09-12-4.63-.43.74,15.75,8.32,15.41,8.9-.5.86-14.38-8.06-14.71-7.49-.24.42,12.75,6.93,12.56,7.25-.34.59-9.94-5.47-10.29-4.87-.18.3,7.83,4.2,7.7,4.44" fill="none" stroke="#999" stroke-linecap="round" stroke-linejoin="round" stroke-width="1.23"/><path d="M372.43,88c-.12.21,9.43,4.93,9.21,5.32s-7.71-.6-8-.17c-.83,1.44,4.42,1.17,3.82,2.21,0,.05-1.67-.09-1.7,0-.54.94,7.93,2.71,7.12,4.11-.69,1.19-20.55-6.58-21.25-5.37-.88,1.53,29.92,15.75,29.26,16.9-1.22,2.11-32.46-16.41-33.54-14.54s23.06,10.57,21.87,12.63c-.56,1-14.86-9.14-15.44-8.14-1,1.81,30.94,15.26,29.81,17.22-1,1.71-37.31-24.73-38.71-22.3s28.72,14.2,27.68,16c-.37.64-16.41-6-17-5-1.61,2.8,28.46,12.59,26.8,15.47-.76,1.31-28.48-10.51-28.94-9.72-.91,1.58,23.41,9.73,21.77,12.57-.87,1.5-27-14.21-28-12.46-1.42,2.47,36.64,17.9,35.23,20.34-1.07,1.85-37.35-18.58-38.7-16.24-.9,1.56,41.26,20.13,39.66,22.9-1,1.65-35.68-17.95-36.61-16.34-1.69,2.92,39.39,20.08,38.23,22.08-.63,1.09-30.11-16.14-31.2-14.24s32.44,14.58,30.64,17.69c-1.18,2-33.56-20.36-34.44-18.84-1.11,1.92,34.71,15.41,32.7,18.89-1.08,1.87-26.09-16.49-27-14.95-1.59,2.75,40.49,19.75,38.91,22.47-1.35,2.33-47.1-25.57-48.34-23.42-1.43,2.48,45.81,23.62,44.59,25.75-1,1.69-36-17-36.88-15.34s36,18,34.76,20.08c-.56,1-33-14.94-34-13.16-1.69,2.93,36,17.22,34.48,19.91-.85,1.47-32.52-20.33-33.81-18.08s32.67,16,31.42,18.15c-1,1.74-31.18-13.9-31.92-12.63-1.49,2.58,37.31,17.55,35.58,20.55-.9,1.56-24-10.41-24.57-9.39-1.43,2.48,30,14.05,28.56,16.49-1,1.82-39.24-25.79-40.74-23.18-1,1.71,43.55,20.78,41.66,24.06-1.31,2.28-38.83-18.71-40.24-16.28-1.23,2.13,37.87,19,36.65,21.16-.39.68-22.39-10.3-23.1-9.07-.9,1.57,24.9,10.05,23,13.3-.55.95-23.47-9.12-24.25-7.77-1.43,2.47,36.48,18,35.14,20.29-1.51,2.62-45.52-28.54-47.39-25.3-1.11,1.92,41.5,19.64,39.63,22.89-1.16,2-32.1-18.46-32.85-17.17-1.49,2.58,30.24,15.3,29.31,16.92-.55.95-21.15-8.57-21.91-7.26-1.49,2.58,28.37,12.07,26.5,15.31-.62,1.08-33.36-17.73-34.41-15.9-1.67,2.9,40.82,21.56,39.94,23.07-.71,1.23-38-20.4-38.88-18.92-1.77,3.06,42.06,20.22,40.3,23.27-1.14,2-41.21-22.44-42.51-20.18-1,1.82,42.9,21.43,41.45,23.94-.85,1.48-31.83-13-32.39-12-1.14,2,39.9,18.66,38,21.95-1.4,2.42-35.75-18.67-37-16.59-1,1.67,33.19,15.79,31.73,18.33s-40.53-21.37-41.53-19.63c-1.71,3,48.6,26.08,47.74,27.57-1.61,2.8-46.71-23.14-47.81-21.25-1.7,2.94,35.58,17.75,34.37,19.85-.5.86-26-14.51-26.47-13.62-1.83,3.17,32.74,16.23,31.58,18.24S377.79,235,377.19,236c-1.17,2,33.43,16,32,18.49-.79,1.36-33.57-15.33-34.15-14.32-1.61,2.79,39,20.34,38.09,22-.7,1.21-35.15-19.14-36.42-16.93-1,1.73,38.42,17.87,36.55,21.11-.67,1.16-34.37-20.83-35.39-19.06-1.55,2.69,41.12,20.77,39.83,23-1,1.72-38.12-23.11-39.2-21.25-1.69,2.92,33.19,16.36,32,18.47s-32-16.85-33.14-14.85c-.94,1.63,35.28,17.26,33.93,19.6-.95,1.64-38.76-25.72-40.25-23.13-1.63,2.82,42.64,21.79,41.41,23.92-.94,1.62-32-19.2-33.24-17.06s28.26,13.63,27.1,15.65c-.77,1.34-21.06-9.43-21.54-8.6-1.64,2.84,25.66,11.28,24.13,13.93-.68,1.18-34.39-18.64-35.7-16.36-1.54,2.66,35.72,17.4,34.32,19.82-.63,1.09-22.64-9.48-23.33-8.28-1.43,2.47,19.07,8.25,17.87,10.32-.65,1.13-25.51-15.48-26.47-13.83-1.71,3,34.35,16.38,32.86,19-.71,1.24-27.06-13.33-27.82-12-1,1.69,35.38,16.74,33.78,19.51-1.26,2.19-33.11-18.58-33.91-17.2-1.17,2,31.34,15.8,30.34,17.52-1.53,2.65-38.76-20.23-39.45-19-.94,1.64,36,18.26,34.89,20.15-.67,1.16-25.91-11.34-26.42-10.47-1.18,2,23,10.66,21.85,12.62-.53.91-30.06-12.42-30.9-11s32.43,14.74,30.71,17.73c-.55,1-20.93-9-21.38-8.25-.83,1.44,22.4,10.21,21.22,12.26-.32.55-17.82-6.49-18.42-5.44-1.45,2.51,24.36,11.76,23.36,13.49-.69,1.19-24.58-11.28-25.39-9.87-1.15,2,23.84,12,23.09,13.34-.93,1.62-34.15-16.37-34.74-15.36-1.37,2.38,42.59,22,41.45,23.94-1.3,2.26-42.24-24.69-43-23.3-1.63,2.82,37.1,18.31,35.75,20.64-.74,1.27-24.53-13.38-25.27-12.09-1.26,2.18,31.52,15.54,30.36,17.54C407.19,334.69,374.07,313,372.9,315s23.75,10.24,22.24,12.85c-.28.48-16.39-3.5-16.86-2.69-1.17,2,26.08,12.81,25.11,14.5-.59,1-22.4-8.83-22.88-8-.91,1.58,14.08,4.64,12.57,7.26-.39.67-19.94-9.72-20.4-8.92-.73,1.26,27.06,12,25.49,14.72-1.06,1.83-26.15-16.84-27-15.31-.72,1.25,34.07,17.13,33,19s-28.34-14-29-12.92c-1.15,2,21.07,9.59,20,11.52-.49.84-15.78-7.77-16.34-6.8-1.18,2,25.32,12.9,24.57,14.19-.92,1.6-24.27-14.42-25.11-13-.93,1.62,18,8.34,17.1,9.88S365,333.14,364.21,334.51c-1.52,2.63,40.07,21,39.13,22.6-1,1.8-30.14-18.24-30.75-17.18-1.49,2.58,22.52,11.32,21.79,12.58-.58,1-18.39-7.1-18.84-6.33-1,1.77,29.68,13.58,28.14,16.25-.75,1.3-27-9.7-27.45-8.9-1.4,2.42,20.21,9.85,19.42,11.22-.41.71-17.88-6.38-18.43-5.43-.8,1.39,21,10.59,20.32,11.74-.86,1.49-35.45-16.75-36.35-15.2-1.25,2.17,27.47,12.7,26.1,15.07-.34.59-19-9.34-19.38-8.64-1.42,2.47,22.3,10.27,21.17,12.23-.24.42-14.4-6.7-14.74-6.11-.79,1.37,19.07,8.94,18.17,10.49s-26.28-15-26.92-13.92c-1.32,2.29,25.69,12.73,24.78,14.31s-28.09-15.51-28.58-14.67c-1,1.66,26.23,12.54,25.1,14.5-.85,1.47-23-8.6-23.48-7.76-1.39,2.4,24.07,11.05,22.83,13.19-.54.93-15.15-8-15.6-7.19-.77,1.33,12.23,4.1,11,6.33-.64,1.11-21.51-7.26-21.89-6.62-.62,1.08,27.38,14.06,26.63,15.38-.54.93-29.79-12-30.33-11.06-1.29,2.23,28.59,13.55,27.31,15.77-.43.74-13.53-6.37-13.82-5.86-1.13,2,20.76,10.62,20.17,11.65s-22.46-14.12-23-13.16c-.85,1.47,12.74,5.68,12,6.94-.55,1-16.4-4.77-17-3.76-1.2,2.08,20,9.75,19.25,11.11-.26.44-13.79-7-14.2-6.28-.67,1.15,15.52,6.14,14.3,8.26-.54.93-23.07-11.09-23.76-9.88-1.28,2.22,18.52,7.69,17.22,9.95-.25.44-10.91-2.91-11.19-2.42-.65,1.13,8.74,3.15,7.92,4.57-.38.67-14.13-8.41-14.67-7.48-1.15,2,15.61,6,14.32,8.27-.29.49-15.86-9.88-16.5-8.78-1.12,1.95,30.25,16,29.62,17.11s-23.17-12.75-24-11.32c-1,1.72,10.41,3.59,9.36,5.41-.36.62-14.71-9.27-15.19-8.44-.83,1.45,18.8,7.92,17.53,10.13-.49.86-17.71-10.1-18.11-9.4-1.1,1.91,18.16,7.84,17,9.83-.3.53-18.33-7.78-19-6.58-1.12,1.94,29.5,14.89,28.57,16.5s-29.33-18.34-30-17.18,20.23,8.93,19,11c-.19.33-8.45-.49-8.68-.09-.9,1.56,18.46,9.07,17.77,10.26-.51.88-21.86-10.87-22.4-9.93-.79,1.36,18.82,9.56,18.25,10.54-.44.77-13.14-4.74-13.52-4.07-1,1.74,7.17,2,6.26,3.62-.36.63-14.09-5-14.57-4.13s13.09,6.56,12.66,7.31c-.25.43-6.24-3.68-6.43-3.35-.42.73,12.54,5.3,11.7,6.76-.19.33-11.69-1.88-11.93-1.47-.42.72,1.08-.25.7.41-.2.35-7.06-1.75-7.28-1.39-.07.13,5.95,3.19,5.84,3.37" fill="none" stroke="#999" stroke-linecap="round" stroke-linejoin="round" stroke-width="1.23"/><path d="M430.41,8.59c-.11.19,8.56,4.5,8.36,4.83s-6.63.11-6.84.47c-.78,1.36,3.08.48,2.51,1.45l-.34.74c-.52.9,6.77,2.12,6,3.46-.65,1.12-19.39-5.81-20-4.68-.9,1.55,30.46,16,29.79,17.2-1.25,2.16-33.17-16.88-34.28-15s25.07,11.6,23.82,13.76C438.77,32,422.69,20.49,422,21.62,420.94,23.52,455.16,38,454,40.06c-1,1.81-39.35-26.08-40.83-23.52S444,31.87,443,33.75c-.42.73-18.57-7.49-19.26-6.28-1.74,3,31.86,14.27,30.07,17.37-.84,1.46-31.51-12.38-32-11.5-1,1.73,28.19,12.12,26.39,15.24-1,1.76-31.35-17.14-32.53-15.09-1.58,2.74,42.16,20.74,40.6,23.45C455,59,414.58,35.51,413.07,38.13c-1,1.74,47.23,23.14,45.44,26.24-1.08,1.87-40.31-20.92-41.37-19.09-1.88,3.25,45.17,23.12,43.89,25.35-.73,1.27-34.78-19.25-36.06-17S463.18,71,461.18,74.5c-1.37,2.37-38.77-23.69-39.79-21.93-1.23,2.13,40.49,18.22,38.26,22.09-1.3,2.24-31.33-19.93-32.4-18.07-1.77,3.06,46.2,22.65,44.45,25.67-1.48,2.56-51.56-28.43-52.93-26.07-1.59,2.75,51.39,26.53,50,28.89-1.09,1.9-40.08-19.59-41.12-17.79s41.48,20.84,40.13,23.18c-.63,1.09-37.08-17.6-38.25-15.58-1.87,3.24,41.53,20,39.81,23-1,1.7-37.39-23.6-38.89-21-1.36,2.36,38.13,18.84,36.76,21.23-1.15,2-35.37-16.56-36.21-15.11-1.65,2.86,42.83,20.31,40.92,23.63C470.88,108.48,443.7,93.48,443,94.7c-1.58,2.74,35.36,16.82,33.8,19.52-1.18,2-44.24-29.12-45.94-26.18-1.09,1.89,49,23.47,46.91,27.09-1.46,2.52-42.81-21.36-44.36-18.66-1.36,2.36,43.38,21.92,42,24.27-.48.83-26.92-13.27-27.78-11.77-1,1.74,30.53,12.83,28.45,16.43-.65,1.13-27.73-11.94-28.67-10.32-1.58,2.74,42,20.85,40.55,23.42-1.68,2.91-50.38-31.82-52.45-28.23-1.23,2.13,47.1,22.4,45,26-1.34,2.32-37-21.55-37.85-20.07-1.65,2.86,35.63,18.19,34.6,20-.67,1.16-25.49-11.46-26.41-9.86-1.65,2.87,33.94,14.82,31.87,18.4-.71,1.23-38-20.77-39.22-18.68-1.86,3.22,46.35,24.53,45.38,26.21-.8,1.39-42.85-23.45-43.82-21.77-2,3.4,47.76,23.05,45.8,26.45-1.28,2.21-45.93-25.53-47.39-23-1.17,2,48.7,24.4,47.09,27.19-1,1.7-36.28-15.76-36.92-14.64-1.28,2.21,45.65,21.48,43.53,25.14-1.59,2.75-40.49-21.8-41.86-19.42-1.08,1.87,39,18.74,37.35,21.57s-45.48-24.52-46.61-22.56c-1.91,3.31,54.43,29.21,53.47,30.88-1.79,3.1-51.54-26.2-52.75-24.1-1.91,3.3,41.62,20.9,40.26,23.25-.61,1.05-31.52-18-32.15-16.9-2.05,3.56,38.82,19.4,37.51,21.66-1.43,2.47-37.68-19.74-38.39-18.52-1.32,2.29,39.78,19.29,38.18,22.05-.91,1.58-38.73-18.52-39.4-17.35-1.82,3.15,45.19,23.6,44.11,25.48-.81,1.4-40.51-22.7-42-20.15-1.13,2,44.82,21,42.7,24.66-.78,1.36-40.19-24.6-41.39-22.53-1.76,3,47.49,24.05,46,26.58-1.15,2-44-26.89-45.24-24.74-1.91,3.31,39.6,19.68,38.22,22.07S457.75,183,456.39,185.39c-1.07,1.85,41.84,20.63,40.31,23.28-1.1,1.91-44.88-29.81-46.62-26.8-1.85,3.2,49.19,25.19,47.8,27.6-1.11,1.93-37.92-23.15-39.39-20.62s34.88,17.07,33.55,19.37c-1,1.73-26.95-13.16-27.57-12.08-1.87,3.24,32.45,14.7,30.7,17.73-.8,1.38-40.14-22.48-41.68-19.81-1.76,3,42.53,20.87,40.93,23.64-.8,1.38-28.26-13.15-29.13-11.63-1.64,2.84,25.9,11.79,24.53,14.16-.81,1.41-31.78-19.66-33-17.59-2,3.4,41.28,19.87,39.56,22.85-.89,1.54-33.17-17.28-34.11-15.64-1.12,1.95,42.47,20.28,40.63,23.46-1.52,2.63-39.56-22.67-40.52-21-1.35,2.34,38.43,19.54,37.28,21.53-1.79,3.11-45.2-24.22-46-22.82-1.09,1.9,43.22,22,42,24.23-.85,1.47-32.36-15.38-33-14.27-1.38,2.39,30.41,14.52,29.09,16.8-.64,1.12-36.21-16.41-37.24-14.63s40,18.45,38,21.94C491.76,246.37,465,232,464.43,233c-1,1.68,30,14.13,28.61,16.52-.45.77-24.46-10.89-25.31-9.42-1.7,3,32.11,15.84,30.94,17.87-.9,1.55-31.46-15.81-32.52-14-1.36,2.35,31.73,16.28,30.84,17.81-1.14,2-41.33-20.82-42-19.57-1.63,2.83,50.72,26.17,49.37,28.51-1.54,2.67-49.86-29.43-50.81-27.79-1.94,3.36,45.33,22.47,43.72,25.25-1,1.68-32-18.26-33-16.56-1.5,2.61,39.81,19.81,38.43,22.19-1.61,2.79-41.79-24.26-43.22-21.77s32.06,14.37,30.27,17.48c-.4.69-23.2-7.92-23.87-6.74-1.4,2.43,34.22,17.07,33.05,19.09-.8,1.39-29.69-13.43-30.34-12.3-1.1,1.91,22.75,8.93,20.93,12.08-.55,1-27.84-14.72-28.49-13.59-.88,1.53,35.86,16.33,34,19.61-1.39,2.41-34.32-22.19-35.48-20.19-.87,1.51,42.79,21.63,41.45,23.94s-36.29-19-37.09-17.61c-1.39,2.42,30,14.16,28.6,16.51-.75,1.3-23.87-13.15-24.74-11.65-1.44,2.49,34.23,17.67,33.32,19.24-1.25,2.16-32.58-19.9-33.72-17.94s27,13.08,25.92,15c-1.22,2.11-38.81-23.66-39.82-21.9-1.86,3.22,49.14,25.72,48,27.71-1.34,2.32-38.75-23.62-39.54-22.25-1.83,3.16,31.54,16.15,30.65,17.7S466,284,465.37,285.12c-1.26,2.17,38.92,18.1,37,21.38-1,1.71-34.84-14.57-35.45-13.52-1.72,3,29.32,14.69,28.35,16.37-.61,1.06-26.09-11.76-26.92-10.32-1,1.73,30.47,15.69,29.64,17.12-1.08,1.87-44.07-22.26-45.19-20.31-1.58,2.74,37.55,17.69,35.82,20.68-.52.89-28.27-15.19-28.89-14.13-1.8,3.13,32.45,15.43,31,17.91-.42.72-23.82-12.68-24.4-11.68-1,1.75,29.29,14.27,28.14,16.25-1.32,2.29-35.81-21.07-36.69-19.56-1.69,2.92,35.92,18.07,34.76,20.08-1.34,2.32-37.67-21.44-38.33-20.3-1.22,2.12,36.54,17.77,35.09,20.27-1.21,2.09-32-14.3-32.73-13.1-1.77,3.07,34.43,16.24,32.85,19-.89,1.55-24.64-14.14-25.39-12.84-1,1.7,22.63,9.27,21,12.12-.94,1.62-30.71-13-31.26-12-.81,1.4,37.78,19.56,36.8,21.25-.72,1.24-39.24-17.89-40-16.62-1.69,2.93,39.71,19,38,22-.77,1.34-23.83-12.86-24.36-11.94-1.49,2.58,31.85,16.58,31.06,17.94-.87,1.51-33.08-20.86-33.9-19.45-1.12,1.94,23.87,11.57,22.92,13.23s-26.25-11.35-27.22-9.67c-1.6,2.77,31.38,15.69,30.32,17.51-.46.8-24.28-13.84-25-12.54-.89,1.54,27,11.84,25.4,14.67-.79,1.37-33.35-17.79-34.37-16-1.72,3,30.11,13.36,28.37,16.38-.52.9-21.25-9.56-21.82-8.56-.88,1.52,20.22,9.12,19.11,11-.68,1.18-24.78-15.52-25.73-13.87-1.55,2.68,27.27,11.71,25.52,14.74-.48.83-26.53-17.05-27.6-15.2-1.52,2.63,41.68,22.11,40.83,23.58s-33.7-19.72-34.91-17.63c-1.34,2.33,22.05,9.45,20.63,11.91-.62,1.08-25.59-16.38-26.43-14.93-1.13,2,30.54,13.66,28.82,16.64-.81,1.4-28.65-17-29.31-15.86-1.5,2.59,29.91,13.69,28.36,16.38-.49.85-28.87-14.86-30-12.91-1.54,2.66,41.43,21,40.15,23.19-1.4,2.42-40.64-25.47-41.57-23.86s32.27,14.86,30.63,17.69c-.46.8-19.31-7.52-19.87-6.55-1.27,2.2,31.12,15.73,30.15,17.41-.8,1.39-33.95-18.58-34.81-17.09-1.16,2,32.76,17,31.92,18.44-.94,1.62-26.41-13.39-27.22-12-1.59,2.76,23.26,10.1,21.82,12.6-.81,1.41-30.07-15.6-31.16-13.71-1,1.71,32.93,17.13,32.12,18.55-1,1.78-25.22-16-26-14.66s33.2,15.44,31.59,18.24c-.6,1-33.85-15.84-34.59-14.56-1.31,2.28,29.92,14.51,28.72,16.59-1.06,1.84-34.21-18.95-35.33-17-1,1.66,36.43,17.87,35.06,20.25-.94,1.63-27.58-11-28.31-9.73-1.36,2.35,18.73,7.35,17.23,10-.55,1-16.13-6.08-16.54-5.38-.7,1.22,19.75,7.69,18.14,10.47-.83,1.44-22.52-11.57-23-10.73C447.12,391,473.39,399.8,472,402.23c-.78,1.34-24.14-15.12-24.71-14.15-1.52,2.64,19.56,9,18.57,10.72-.6,1-23.22-13.15-23.92-11.94-.92,1.6,31.37,15.48,30.23,17.46-.82,1.42-22.64-9.57-23.17-8.65-1.1,1.91,32,14.94,30.43,17.57-.73,1.26-38.87-18.13-39.55-16.94-1.4,2.43,29.5,15.06,28.64,16.54-1,1.66-28.11-15.36-29.13-13.58C438,401.6,471.29,414.94,470.09,417c-.46.79-18.6-9.68-19.33-8.42s22.88,10.19,21.57,12.46c-.51.89-20.88-12.77-21.27-12.09-1.08,1.87,16.93,7.1,15.77,9.11-.6,1-23.39-11.22-24.17-9.86-1.26,2.19,21,9.25,19.72,11.39-.78,1.36-22.39-8.22-22.87-7.39-1.43,2.47,27.1,12.51,25.74,14.86-.49.85-26.69-14.65-27.32-13.55-1,1.69,22,10.86,21.19,12.24-.68,1.18-25.76-11.49-26.19-10.73-1.46,2.53,38.62,19.66,37.47,21.64s-34-19.11-34.74-17.91c-1.22,2.11,21.19,10.28,20.34,11.75-.69,1.2-19.05-10.43-19.68-9.34-.81,1.41,28.09,12.92,26.66,15.4-.51.88-18.77-10.36-19.09-9.8-1.39,2.41,10.53,4,9.63,5.56-.36.63-12.82-7.37-13.1-6.88C439.11,427.75,465,438,464.3,439.24c-.43.75-24.39-14.88-25.37-13.18-1.08,1.86,20.18,9.18,19.11,11s-26.74-15.75-27.54-14.36c-1.1,1.91,28.62,15,27.95,16.14-.39.68-14.5-5.85-14.89-5.17-1.15,2,16.08,6.15,14.72,8.5-.5.86-29.38-13.7-30-12.7-1,1.69,22.83,10.36,21.61,12.48-.54.93-22.81-9.68-23.28-8.85-1.15,2,34,17.09,32.89,19-1,1.73-26.73-14.64-27.4-13.47-.81,1.4,24,11.41,22.91,13.23-.34.59-19.2-9.25-19.87-8.08-.85,1.47,14.81,6.24,13.81,8-.37.63-12-3.19-12.17-2.86-.85,1.47,12.73,4.27,11.39,6.58-.4.7-18.11-6.06-18.57-5.27-1.15,2,25.53,12,24.35,14.06-.65,1.12-24.88-8.47-25.28-7.77-.75,1.3,25,12.07,23.94,13.83-.66,1.14-23.7-10.82-24.33-9.71-.8,1.39,23.31,10.5,22,12.72-.52.9-19.19-9.7-19.64-8.92-.65,1.13,22.33,11.29,21.63,12.49-.78,1.36-31.52-12.79-32.07-11.85-1,1.8,28.76,13.72,27.51,15.89-1.12,1.94-28.58-17.73-29.2-16.66-.78,1.35,26.32,13.18,25.44,14.69s-26.06-10.63-27-9c-1,1.77,26.11,13.08,25.24,14.58-.48.84-16.42-9.1-17-8.11-1.23,2.14,8.63,3.25,7.88,4.55-.16.28-6.69-.93-6.8-.74-1,1.72,4.62-.09,3.43,2-.46.8-12.83-3.49-13.18-2.89-1.06,1.83,14.67,5.91,13.56,7.83-.12.2-5.52-.87-5.72-.52-.92,1.59,17.26,8.39,16.58,9.57-1.19,2.06-32.38-14.75-33.14-13.42-.64,1.1,24.9,12,23.85,13.77-.32.55-16.06-7.84-16.43-7.19-.93,1.61,15,7,14.25,8.23-.37.64-10.8-5.8-11-5.37-.65,1.13,13.49,6.6,13,7.49s-15.4-3.07-15.89-2.22c-.68,1.19,6.81,2.68,6.27,3.62-.26.46-8.81.08-9,.45s7.53,3.94,7.35,4.25" fill="none" stroke="#999" stroke-linecap="round" stroke-linejoin="round" stroke-width="1.23"/><path d="M284.6,27.35c12.28,3.27,25.8,11.39,18.38,28.11,6.49-16.72,5.11,438,1.4,432.39,6.19,14-7.07,21-20.42,17,4.63,3.71-131.69-146-135.73-140.22-1.41,3.22-123.85,7.17-121.4,3.15C15.36,356,10,366.65,13.1,351.76c-4.64.65-.72-169.57-1.13-164-2.17-3.59.88-9.51,13.8-16.89-3.08-1.54,125.67.06,128.83-8.37C149.25,164.32,284.36,18.88,284.6,27.35Z" fill="none" stroke="#666" stroke-width="3.08"/><path d="M385.2,95.82c10,29.91,19.32,45.5,24.29,84.17,6.14,19.57,9,53.61,8.78,75.6-.4,32.13-3.32,56.59-9.69,89.67-5.8,29.59-16,54.27-28.06,78.4-4,12.37-19.83,21.55-26.58,3.7-5.05,4.89-7.07.61-6-3.83-1.81-3.72-1.05.9-.57-8.52-1-2.58-.82-3.63.51-13.35,7.5-12.35,13.69-34,18.08-71.32,2.49-13.9,5.31-50.55,5.54-75.22-1.06-20.6-2.4-47.73-5.75-73.5-3.23-20.76-8.69-46.34-15.13-65.35-3-11.93.76-31.36,6-18.89C364.72,76,381.25,83.94,385.2,95.82Z" fill="none" stroke="#666" stroke-width="3.08"/><path d="M415,15.5c8-21.46,20.33-16,26.63-.72C461.29,41.22,478.09,87.24,488.54,137c10.6,38.44,16.9,71.07,15.54,111.85,2.16,52.7-5.08,82.71-16.43,122.16-10.19,49.78-25.84,90.25-47,113.63-4.77,13.27-18.48,33.44-25.55,23.24-7.85-.51-8.8-22.44-4.83-30.63a613.34,613.34,0,0,0,32.67-111c8.79-38.44,11.54-68,12.63-103.29-.4-48.85-5.48-84.12-11.39-111.44-8.28-43.37-19.21-88.36-34.28-106C405.75,23.09,408.3,21.55,415,15.5Z" fill="none" stroke="#666" stroke-width="3.08"/><path d="M286.51,22c11.63,9.73,21,13,25,25.16-9.88,7.29-8.18,439.31-5.51,441.74,2.2,12-5,23.24-17.42,18.57-4-3.88-138-140.52-142.58-143.78,4.22,1.38-116.4,3.61-121.36,2.91-6.11-5.5-10.72-9.08-17.12-17.39,7.79,4.35,4.58-160.43-2.24-168.83,2-6.55,18.75-11.71,16.35-11.64,5.44,6.44,131.65.24,133.82,3.11C149.45,166.35,280.74,30.63,286.51,22Z" fill="none" stroke="#4c4c4c" stroke-width="2.31"/><path d="M384.15,95.73c12.69,29.34,19.74,57.05,27.27,78.57,3.32,26.07,7.67,58.63,6,83.4-.69,30.22-3,53.52-7.73,87.21C402.36,371.12,392,395,379,427.45c-2.78,6.49-16.1,8.67-27,8.45-2.53-7.85-5.28-14.66-4.74-18.82-.83-3.09-.1-1.58-.19.86-.74-7.49.15-6.14,1.08-7,6.85-27.38,13.78-49.66,17.11-75.37,4.75-26.26,7-50.35,5.26-80.77,1.84-25.61-2.5-48.13-4.1-73.4a346.28,346.28,0,0,0-17-67.53c-1.53-9.27,3-21.11,7.24-29.69C363.89,86,380.57,92.43,384.15,95.73Z" fill="none" stroke="#4c4c4c" stroke-width="2.31"/><path d="M416.14,4.43c6.79,1.3,20.83,4.68,23.47,7.48C461.42,52.48,476.49,97.69,488,135.78c11.12,33.6,18.61,80.06,18.85,123.12-2.94,38.12-9.47,76.56-16.7,127.61-12.36,36.22-28.49,73-50.66,117.47-2.72-1.71-15.42,7.32-24.39,1.09-8-12.37-9.57-15.56-6.78-24.57,16.46-38.77,26.32-76.07,33.85-106.15,10.44-39.18,11.53-75.66,12.37-116.87-.22-41-5.4-79.56-11.76-119.61-8.66-33.39-16-69.17-34.68-111C408.91,25.88,409.2,20.29,416.14,4.43Z" fill="none" stroke="#4c4c4c" stroke-width="2.31"/></svg>