<svg id="Layer_1" data-name="Layer 1" xmlns="http://www.w3.org/2000/svg" viewBox="0 0 512 512"><title>stop-handdrawn</title><path d="M502.68,9.25s3.38,1.92,3.37,1.95c-.2.34-8.66,1.31-8.91,1.73-.43.75,4.47,2,4.22,2.44s-8.21-1.8-8.46-1.37c-.66,1.15,5.67,1.58,4.94,2.86-.05.09-2.44-.76-2.51-.64-.62,1.07,5.73,1.74,5,2.92-.14.24-8.28-3.42-8.48-3.07-.83,1.45,5.79,1.75,5.1,3s-19.25-8.64-20-7.36,21.74,11.09,21.1,12.21c-1,1.7-24.7-14.2-25.55-12.72-.6,1,23,11.61,22.25,12.88s-23.56-12.39-24.24-11.2C469.12,15.35,507,31.71,506,33.37S466.47,14.52,465.64,16c-1.19,2.07,32,14.32,30.17,17.47-.66,1.14-25.65-15.86-26.21-14.89C468.09,21.17,502.53,35,501.4,37c-2.08,3.62-53.66-29.71-55.67-26.22-1.17,2,52.83,25.84,50.78,29.4-.93,1.62-55.15-27.07-56.15-25.33-2.14,3.71,64.1,30.86,61.4,35.54-1.69,2.93-67.24-37.54-68.84-34.76-1.5,2.6,61.44,31.39,59.64,34.52S424.63,6.9,422.33,10.88c-2.66,4.61,74.83,35.85,71.61,41.45C491.84,56,423.49,4.75,420.53,9.89,418.62,13.19,495,45.19,491.62,51c-2.45,4.25-70.11-40.07-72.87-35.29-2.1,3.65,80.94,38.63,77.38,44.79-1.86,3.22-85.64-52.39-89.09-46.4-3.6,6.26,93.77,45.35,89.91,52C493.25,72.63,402.92,10,400,15c-3,5.24,97.71,47.88,94,54.39s-98-65-101.67-58.76c-2.57,4.46,115.45,58.2,111.72,64.67S383.82,6.58,381.27,11c-3.67,6.37,115.47,56.34,110.94,64.22-2.87,5-108.33-70.12-112.34-63.15-4.44,7.71,128,67.45,125.15,72.44-4.6,8-118.3-78.95-123.06-70.67-2.28,4,116,61.08,113.4,65.64-3,5.24-112.22-71.47-115.45-65.87C376.53,19.49,501.54,76.3,498.2,82.1c-3.17,5.51-112.52-71.25-116.09-65C376.71,26.44,506,81.65,502.91,87,499,93.79,372.81,5.62,368.24,13.56c-4,7,135,71.33,132.06,76.45C497.83,94.31,366,10.22,362.67,16c-2.9,5,132.16,65.64,127.47,73.79C486.71,95.72,355.48,5.6,350.74,13.83c-6.21,10.78,149,78,145.48,84.21-2.73,4.74-144.77-90-147.56-85.12-4.86,8.44,151.48,74.14,145.63,84.3-5,8.69-153.11-92.38-157.82-84.21-4,7,163.85,87.38,160.62,93C493.2,112.75,325.85,2.92,322,9.67c-4.8,8.34,179.63,92.28,174.57,101.05-5.18,9-168-101.33-171.29-95.67-5.63,9.78,179.38,86.65,172,99.54-4.39,7.63-171.11-106.71-177.1-96.31-7.35,12.76,179,92.52,174.19,100.83-5,8.67-182-111.64-186.44-103.93-6.68,11.6,197.17,102.11,192,111.13C492.61,138.86,310.14,5.1,304.59,14.75S509,122.4,504.36,130.39C498.91,139.85,303.87,7.56,299,16.07,295,23,509.44,123,503,134.19,496.15,146.12,300.84,9.26,297.18,15.63,292.34,24,510.55,127,505.32,136.11s-219.18-135-224.94-125c-7.78,13.51,220,106.19,210.85,122.05C484,145.82,282.54,2.2,276.3,13c-6.11,10.6,219.95,112.56,213.57,123.63C481.8,150.7,276,1.3,270.1,11.46c-8.82,15.32,241.72,123.92,234.81,135.92C498.37,158.73,273.9,7.66,268.54,17,261.6,29,499,131.62,490.9,145.68,486.61,153.12,266.36,6.87,260.47,17.1,256,24.94,510.34,146.74,503.86,158,496,171.56,264.22,8.36,258.88,17.62c-5.7,9.91,245.82,120.58,236.44,136.87C488.59,166.19,255.91,9.56,251.7,16.86c-9.49,16.48,247.67,121,238,137.77C482,168.07,242.31,1.32,236.93,10.66,229,24.45,510.5,148.86,501.8,164c-5,8.67-259.44-159.84-264.29-151.42-8.45,14.67,261.75,138.7,256.22,148.31C484.68,176.58,238.09,1,230.62,14c-6.36,11,275.43,140.1,267.08,154.6-5,8.71-266.77-176.34-276.92-158.72-6.34,11,289.79,143.44,279.29,161.67C490,189,225.23-1.25,217,13.13,206.1,32,512.81,168.16,505.8,180.34,499.76,190.83,226.47,4,218.34,18.08c-8.49,14.74,289.79,142.64,279,161.47C487,197.35,211-.37,202.5,14.46c-7.61,13.22,314.32,155,302.69,175.21-11.54,20-298-185-303.68-175.23-7.48,13,301.77,157.66,294.41,170.42S214.68.76,204.8,17.91c-10.89,18.92,299.64,152.4,290.55,168.19-11,19.1-294.78-181-301-170.24-7.12,12.37,307.9,161.56,300.7,174.06C486,205.72,190.31,5.53,184,16.41,173.17,35.3,501.15,176.9,491.18,194.2,478.26,216.64,175.42-6.67,164.81,11.76,154.34,29.93,507.67,179.61,494.44,202.57,485.74,217.7,172.66-12.11,160.09,9.72c-10.69,18.56,351,184.63,343,198.55C496.7,219.37,159.9-8.15,149.17,10.48c-7,12.23,357.25,183.1,347,200.87-8.61,15-346.46-223.67-359.13-201.66C128.58,24.42,517.24,203,505.68,223.07,494,243.33,154.2-3.4,141.56,18.55c-10.24,17.78,363.18,175.6,348.22,201.57C480.25,236.68,135.84-.22,126.12,16.66c-15.69,27.25,374.45,197.17,366,211.86C482.72,244.81,128.7-.85,117.42,18.73,109.5,32.49,508,218.6,496.69,238.28,487.09,254.94,114.55-9.23,101,14.36,87.86,37.11,502.16,222.69,491.84,240.61,481.21,259.06,103.74,4,96.76,16.11,84.22,37.87,511.59,226,498.54,248.69,485.76,270.88,97.07,1.51,88.36,16.64,72.27,44.58,514.09,244.18,505.92,258.36,492.74,281.24,81.26-12.44,68.33,10,56.28,30.94,509.18,238.6,497.7,258.54,482.55,284.84,71.77-9,61.11,9.5c-17.21,29.89,439,236.31,431.29,249.65C481.06,278.84,84.16-14.46,67.41,14.62c-10,17.32,442.1,221.51,427.25,247.31C481.55,284.7,64.87-8.27,52.54,13.15c-15.21,26.41,466.13,234.46,450.86,261C493.3,291.67,70.1-17.44,52.05,13.91,39.44,35.8,508.34,256.22,498.92,272.58,481.82,302.27,61.42-.47,50.48,18.51c-17.25,30,462.82,224.32,444,257-16,27.79-447-290.58-462.08-264.44C19.57,33.36,510.94,257.61,497.77,280.47,488.68,296.26,42.33-21.41,23.71,10.92,10.4,34,504.43,263.63,493.39,282.8,485,297.31,37.8-8.1,22.94,17.71c-11,19.1,501.09,248,482.94,279.56C492.52,320.47,26.59-3.81,13.93,18.18,2.93,37.28,508.55,282.7,499.13,299.05c-18,31.33-474.9-297.77-485.82-278.8C-.9,44.93,512.34,272.73,496.62,300,478.46,331.56,38.32-3.4,21.31,26.13c-8.86,15.39,491.25,238.74,471.55,273C476,328.44,24.57,7.26,13.57,26.37-5.76,59.93,508.37,291.31,499.09,307.42,483.2,335,22.14,9.62,11.22,28.59-.94,49.71,503.34,284.45,490.82,306.2,475.36,333,30.21,9.28,14,37.35-.16,62,516.44,300.32,504.41,321.2,487.85,350,35.58,12.38,17.15,44.39,3.9,67.39,507.87,301.87,496.39,321.8c-18.13,31.48-471-308.43-488-278.86-12.92,22.43,507.47,262,493.75,285.81C483.1,361.86,31.32,23.85,15.36,51.57c-11.66,20.24,499.83,252.6,484,280.15C482.78,360.44,28.5,43,19.72,58.24.9,90.92,511.08,301.53,493.31,332.38,482,352.07,26.2,25.14,9.79,53.63c-10.4,18.05,495.48,250.89,480,277.83C474.37,358.19,36.66,36.22,22.36,61,12.12,78.84,508.76,322.23,500,337.51,484.06,365.11,34,45.87,21.43,67.69,5.24,95.8,513.75,309.21,495,341.81c-15,26-464.78-292.9-475.62-274.08C1.5,98.74,521.75,319.72,505,348.84,493.11,369.45,30.42,40.27,15,67-4.34,100.63,518.33,312.5,498.54,346.87,487.6,365.87,39.8,46.42,24.17,73.57c-16,27.72,486.68,237.33,467.51,270.62C480.09,364.32,20.07,52.34,10,69.85c-19,33,492.75,256,480.1,277.91C473.32,376.89,34.9,52.2,18.13,81.32,5.58,103.11,519.22,335.86,503.88,362.5,487,391.76,41.68,54.62,23.26,86.61c-12.73,22.1,486.09,238.72,467.67,270.71C478.46,379,38.19,60.51,23.08,86.76c-9.21,16,492.36,238.85,472.43,273.47C480.26,386.7,25.6,53.63,8.7,83-4.06,105.13,514.33,355.26,505.52,370.56,494.33,390,27.7,63.05,12.64,89.2c-12,20.9,499.88,260.15,487.27,282.06C488.31,391.41,35.36,64.31,17.1,96-1.3,128,516.31,354.95,503.34,377.47,488.41,403.39,28.06,64.92,8.84,98.29c-11.52,20,502.56,251.2,485.41,281C484.5,396.22,29.37,90.87,19.45,108.1c-17,29.44,487.72,257.11,476.83,276C482.15,408.66,39,85.24,23.92,111.44,5.83,142.86,510,348.21,490.74,381.66,482.49,396,40.21,86.62,23,116.44,14.2,131.78,506,373.11,496.1,390.28c-16.41,28.49-460.87-298-475.7-272.2C10.12,135.93,511.84,374.86,499.88,395.63,485.74,420.18,32.31,107.16,22.71,123.84,4.75,155,518.66,373,502.29,401.46c-14.91,25.89-468.77-304.23-486-274.27-11.36,19.73,498.63,264,488,282.48-10.91,19-481.91-302.46-493.56-282.24-8.89,15.44,510,258.38,494.11,286-16.7,29-466.85-308.15-485.2-276.3-11,19.18,493.87,246.2,476.73,276-15.08,26.19-461-304.88-479.72-272.34C6.54,158.3,506.48,396.65,494.52,417.41c-8.62,15-469.37-290.71-480.24-271.82C-.9,172,519.54,404.09,504.87,429.57,490.8,454,34.69,124.48,20.16,149.7S512.1,397.33,496.06,425.18C487.17,440.62,27.66,119.65,9.67,150.9-7.89,181.39,519.59,411.11,504.49,437.34,490,462.54,36.64,139.49,23.72,161.93c-12.58,21.85,484,249.7,470.84,272.55-11.15,19.36-461-301.28-478-271.62C6.38,180.46,508.17,412.49,493.06,438.71c-10.38,18-455.3-305.41-474.32-272.38C2.06,195.32,509,413.52,493.17,441,479.05,465.48,21.69,138,8.7,160.57c-18.46,32.06,501.47,256.08,486.7,281.73C482.88,464.07,38.06,147,22.37,174.19,11,194,513.14,435.67,503.38,452.63c-12.35,21.45-472-299-485.31-275.88C2.55,203.68,515.29,421.65,496.75,453.84c-13.68,23.75-464.57-305.7-481-277.12-19.77,34.33,498.21,246,479.92,277.81-12.11,21-455-304-472.58-273.49C3.41,215.16,510.94,425.7,494.63,454c-14,24.24-468-290.21-479.35-270.42-9,15.59,506.56,255.54,490.28,283.8-13.12,22.78-472.78-298.68-486-275.7-19.34,33.59,496.82,260.14,485,280.73-9.31,16.16-474.26-300.62-486.14-280-17.11,29.72,494.49,245.28,476.8,276C482.08,491.18,38.79,176.18,24.43,201.12c-18.21,31.63,499,246.45,480.7,278.25C494,498.65,28.19,167.23,11.46,196.29S504,460.76,495.1,476.25C485.46,493,39.47,175,23,203.56,6.91,231.51,508.75,461.43,498.68,478.91,488.89,495.92,25.1,181.3,12.95,202.4c-19,33,509.79,256.3,493,285.4C491.64,512.7,25.74,173.18,9.68,201.07c-14.21,24.67,496.62,256,483.05,279.62-10.13,17.58-464.55-283.17-473.84-267C5.29,237.27,510.46,458.9,493.49,488.38,478.35,514.67,35.61,200.88,23.3,222.26,6.81,250.89,503.21,471.87,491,493c-16.37,28.43-466.34-294.8-477.3-275.77-15.69,27.24,501.08,260,488.1,282.54-8.81,15.31-474.59-299-485.4-280.22C3.09,242.73,522,473.83,505.42,502.61c-16.38,28.45-473-294.75-483.77-276-12.82,22.27,480.88,248.82,468.12,271C472.78,527.08,28.42,199,12.2,227.2-1.69,251.33,514,473.06,494.76,506.54c-9.88,17.16-463-295-475.67-273-16,27.85,489.63,243,472.18,273.32C472.36,539.71,21.39,208.69,9,230.27c-13.31,23.12,480.1,251.87,468.86,271.4C461.61,529.81,33.19,224.65,22,244.14,11.69,262,489.7,478.72,474.08,505.85,458.73,532.5,28.46,230.48,20,245.11,6.92,267.88,472.79,474,458.46,498.9,441.83,527.79,30.22,222.05,16.16,246.46,4,267.56,465,486.64,456.54,501.38,445,521.35,26.85,233.24,16.26,251.63c-9.68,16.82,448.59,230.59,436,252.4-14,24.39-419.47-261-429.6-243.38-14.93,25.93,438,221.41,424.16,245.53C431.38,533,24.31,240.19,15,256.4c-13.26,23,432.74,228.22,423.12,244.93-14.42,25-406.77-255.71-417.5-237.08-17.16,29.8,431,218.26,417.48,241.66C424.38,529.72,23.31,236.28,10.2,259.06,1,275.07,442.71,476.18,428.36,501.12,421,513.93,23.25,250,14.12,265.83,1.64,287.5,430.75,487.79,422.45,502.2c-9,15.56-400.22-245.68-409-230.37C-1.46,297.66,416.24,475.17,403.35,497.55c-8.68,15.07-377.07-242.79-389-222.05C2.05,296.84,424.73,477.86,409.53,504.25,402.17,517,29.19,270.87,20.47,286c-8.4,14.59,382.18,187.83,367.76,212.88C376.63,519,30.24,274.18,21.3,289.71c-10.57,18.35,382,200.43,373,215.93-12.15,21.1-360.24-229.38-370-212.44C17,305.9,398,488,388.68,504.1c-14.56,25.29-362.73-233.25-375-212-14.5,25.19,377,202.16,370.06,214.21C372.6,525.74,33.77,284.8,23.39,302.81,13.34,320.27,375.95,478,363.48,499.68,355.63,513.3,26.89,277.89,13.09,301.85c-10.53,18.29,366.55,183.41,354.12,205C361,517.59,27,291.06,17,308.46c-9.34,16.23,353.2,173.86,340,196.8S24.57,299.69,16.12,314.36C5,333.74,349.36,481.15,338.08,500.73,327.54,519,25,309.45,19.42,319.12c-7.94,13.8,333.21,168.08,322.5,186.68-11.8,20.49-305.6-203.24-317.4-182.75-9.88,17.15,321.8,160.59,310.7,179.85C322.32,525.34,16.79,305.84,10.87,316.12c-8.81,15.3,330,163.09,318,184-7,12.16-293.13-191.72-304.06-172.75-8.15,14.15,306.5,152,295.51,171.06C311.42,513.86,22.79,318.62,16.74,329.13,10.32,340.28,318,489.7,312.05,500.08,305.93,510.71,21.38,321,14.81,332.37,6.65,346.54,310.19,490.2,304.51,500.07c-9.91,17.21-281.43-168-286.72-158.79-6.34,11,284.25,148.1,277.15,160.43C286.17,516.93,22.05,329,14.48,342.12c-11.4,19.8,285.93,141,275.37,159.4C283.42,512.7,30.32,337.58,24.05,348.46c-5.63,9.77,272.19,138.71,264,152.85-9.86,17.12-269-173-278.79-156-9,15.63,288.9,142.87,278.38,161.14-5.29,9.19-265.51-162.8-270.94-153.36-10.35,18,267,132.87,257.66,149.15-9.11,15.82-244.07-157-252.62-142.14S269.66,490.31,263.93,500.27C258.81,509.15,21.2,351.89,16.2,360.57c-6.32,11,253.16,131.51,246.67,142.79-9.78,17-238.47-155.62-247.62-139.73-7.93,13.78,241,121.39,233.16,135-9,15.7-221-139-228.3-126.27C11,388.1,250.15,491.68,244.19,502,237.47,513.71,14.61,358.66,8.88,368.61.71,382.8,249.15,494.76,243.57,504.45,235.7,518.12,29.53,374.9,24.85,383S233.73,490.47,227.91,500.57C220.88,512.79,20.7,364,13.08,377.25,4,393,231.48,494,227.3,501.26,219,515.65,24.69,371.45,17.73,383.53c-4.08,7.08,210.3,107,203.94,118.05C214,515,19.07,371.79,12.81,382.66c-8,14,215.47,106.06,207.4,120.06C214.31,513,29.5,381,22.48,393.21c-6.15,10.69,198,95.45,189.73,109.83C205.74,514.27,26.77,388.73,22.07,396.89c-7.16,12.44,178.86,93.22,174.4,101-4.3,7.47-168.15-112.6-175.09-100.55C14.1,410,213.53,499.32,209.56,506.21S21,390.07,16.36,398.11c-6.79,11.79,175.66,93.27,172,99.58-3.92,6.8-169.89-103.52-173.86-96.64-5,8.76,186.6,99.62,183,105.91-6,10.45-175.82-108.44-180.4-100.49-4.16,7.23,170.24,82.65,163.38,94.57-5.26,9.13-162.63-101-167.44-92.63-3.22,5.6,163.56,86.47,160,92.63C168.82,508.4,24.43,402.79,19,412.3c-3.74,6.5,159.06,84,155.57,90.05-3.73,6.48-145.06-94.86-150.12-86.06C18.81,426,180,497.87,176.3,504.22c-3.16,5.48-149.91-93-153.21-87.24-5.3,9.2,149.5,76.6,145.21,84.06-4.17,7.24-144.71-89.94-149.39-81.82-3.71,6.45,147.36,74.6,142.73,82.62-3.68,6.4-133.38-84.1-138.53-75.15-4,6.92,133.91,69.4,130.4,75.48C148.8,510.35,14.17,411.28,8.58,421c-3.87,6.73,151,76.53,146.32,84.7-4.17,7.24-135.74-79.7-138.31-75.24-3.88,6.74,135,70.6,131.74,76.26-4.16,7.23-129.92-80.4-133.71-73.8-4.54,7.88,130.18,68.79,127.35,73.72-4.25,7.38-116.7-75.91-121-68.4-4.69,8.14,122.31,59.22,117.31,67.91-3.93,6.83-124.79-79.35-128-73.84-2.4,4.17,123.17,61.63,119,68.88-4,7-116.72-69.94-119.07-65.86-3.67,6.38,119.79,58.49,115.1,66.63-2.23,3.87-108.5-63.31-110.76-59.38C10.3,449.92,120.3,494,116.09,501.32c-3.55,6.17-89.18-56.55-91.76-52.07-3.65,6.33,91.89,48.07,89.68,51.91-2.6,4.51-97.16-58.9-99.44-54.95-2.68,4.66,97.75,50.49,95.12,55.06C107.55,505,17,449,14.86,452.62c-3,5.3,90.19,48.17,88.45,51.2-2.13,3.7-83.56-47.21-85.32-44.15-3.28,5.7,82,42,79.67,46.12-3,5.2-84.53-53.41-87.5-48.27C8.06,461.16,85.8,494.88,83,499.69s-70.94-43.24-72.95-39.75c-3.2,5.55,68.86,35.64,67,38.8s-66-37.11-67.59-34.38c-1.87,3.24,74.88,39.57,73.25,42.4-2.18,3.78-63.06-41.33-65.38-37.3-2.5,4.34,54.4,26,52,30.12-1.67,2.91-47.2-28.36-48.51-26.1C19.46,476,76.06,500.3,73.85,504.13c-1.83,3.18-56.86-32-58-30-2.38,4.14,53.83,26.26,51.71,29.93-1,1.8-43.12-26.14-43.9-24.8-1.19,2.07,36.64,17.49,35,20.28-.92,1.6-37-21.42-38.41-19-1.89,3.28,34.42,16.22,32.82,19-1.44,2.5-38.65-21.88-40-19.57-.91,1.58,40,19.87,38.6,22.35-.54.94-30.25-18.15-31.25-16.41-1.4,2.43,28.93,14,27.75,16.06-.76,1.33-28.69-12.36-29.22-11.44-1.26,2.19,18.39,7.62,17.09,9.89C35.15,502,12,485.72,11.42,486.65c-.62,1.08,31.17,15.77,30.19,17.47-.58,1-18.71-9.06-19.26-8.09s3.9-.29,2.8,1.62c-.15.26-6.3-1.73-6.49-1.39-.77,1.33,13.42,5.36,12.38,7.17-.24.41-10.34-1.33-10.67-.76-.42.72,1.75-.31,1.18.68-.22.39-12.63-3-13.06-2.25-.2.35,10.54,5.53,10.3,6s-10-2.47-10.3-1.95c0,0,3.38,1.93,3.37,1.95" fill="none" stroke="#999" stroke-linecap="round" stroke-linejoin="round" stroke-width="1.27"/><path d="M8.28,10.71c-.94-7.22,502.51.88,496.81,0,2.11,6.24,4.05,502.74-4.49,483.64,11.54,21.93-493.42,6.8-485.09,10.57C7.49,518.41,6.54,15.14,8.28,10.71Z" fill="none" stroke="#666" stroke-width="3.16"/><path d="M7.41,5.9c3.27,8.83,488.31,8.24,500.5,1.94-7.49,8.73.75,495.92,4.13,496.79-13.68,2.54-501-5-509,.23C19.56,506.9,19.44,15.77,7.41,5.9Z" fill="none" stroke="#4c4c4c" stroke-width="2.37"/></svg>